<svg id="Layer_1" data-name="Layer 1" xmlns="http://www.w3.org/2000/svg" viewBox="0 0 1000 1007"><defs><style>.cls-1{fill:#231f20;}</style></defs><title>tokyo_optima</title><path class="cls-1" d="M754.8,946.06a256.74,256.74,0,0,0,20-51.38A337.77,337.77,0,0,0,784.59,840q2.73-28.15,2.73-59.31t-2.73-59.31a338,338,0,0,0-9.84-54.65,277.44,277.44,0,0,0-20-52.2,321,321,0,0,0-33.07-51.93l10.93-9.84q44.28,47.55,66.41,106.31a342.21,342.21,0,0,1,22.14,121.62q0,60.67-22.41,120A322,322,0,0,1,732.66,1007l-10.93-9.84A341.79,341.79,0,0,0,754.8,946.06Z"/></svg>