<svg id="Layer_1" data-name="Layer 1" xmlns="http://www.w3.org/2000/svg" viewBox="0 0 1000 1007"><defs><style>.cls-1{fill:#231f20;}</style></defs><title>tokyo_optima</title><path class="cls-1" d="M246.49,946.06a257.34,257.34,0,0,0,19.95-51.38A337.77,337.77,0,0,0,276.28,840Q279,811.87,279,780.71t-2.73-59.31a338,338,0,0,0-9.84-54.65,278.13,278.13,0,0,0-19.95-52.2,321,321,0,0,0-33.07-51.93l10.93-9.84q44.27,47.55,66.41,106.31A342.21,342.21,0,0,1,312.9,780.71q0,60.67-22.41,120A322,322,0,0,1,224.35,1007l-10.93-9.84A341.79,341.79,0,0,0,246.49,946.06Z"/></svg>