<svg id="Layer_1" data-name="Layer 1" xmlns="http://www.w3.org/2000/svg" viewBox="0 0 1000 1007"><defs><style>.cls-1{fill:#231f20;}</style></defs><title>tokyo_optima</title><path class="cls-1" d="M169.39,496.18q-4.65-20.32-9.81-39.6t-10.17-38.91q-5.74,1.79-21.31,6.95T94.6,436.53a22.43,22.43,0,0,0-1.27-5.9l-1.64-5.22-1.79-5.74a18.86,18.86,0,0,0-2.16-5.05c4.64-1.07,9.41-2.28,14.34-3.62s10.17-2.9,15.73-4.64l25.56-8q-.13-2.26-3.92-17.11t-9.55-35.09q-5.76-20.26-12.35-42.24t-12-39.21q-4.56-14.61-9.75-28.45A90.34,90.34,0,0,0,83,212.52,43,43,0,0,0,64.8,198.44q-10.47-4.17-26.12.73a83.38,83.38,0,0,0-10.89,4.55,92.35,92.35,0,0,0-11.45,6.44l-3.91-12.52q8.38-4.33,18.34-10a100.14,100.14,0,0,1,19.87-8.79q32.86-10.29,53.57,1t30.5,42.58q4.41,14.09,9,30.68t9.95,36.4q5.34,19.81,12.24,43.71t16,53.11l16.7-5.22c2.79-.87,5.71-1.89,8.78-3s6.31-2.45,9.67-3.88c.31,2.2.68,4.27,1.1,6.25s1,4,1.61,6.08q.82,2.59,1.89,5.13c.73,1.68,1.53,3.34,2.42,5q-24,5.79-34.92,9.21,3.78,10.26,8.94,25.84t11.42,31.93L172,495.36Z"/></svg>