<svg id="Layer_1" data-name="Layer 1" xmlns="http://www.w3.org/2000/svg" viewBox="0 0 1000 1007"><defs><style>.cls-1{fill:#231f20;}</style></defs><title>tokyo_optima</title><path class="cls-1" d="M237.63,243.43q16.68-5.22,37.22-11.93t40.7-13.59Q335.74,211,354,204.45t31-11.7q2,15.44,4.74,24.29t9.95,22.66q-13.38,3-32.14,8.05T328.28,258.6q-20.5,5.85-41.2,12T249.7,282l-39.12,12.23.32,1.05q34.47,5.83,54.45,23.91a97.1,97.1,0,0,1,28,43.66,138.49,138.49,0,0,1,6.16,40.74,92.57,92.57,0,0,1-9.85,41.74q-10,20.29-31.4,37.88t-57.41,28.84q-34.42,10.77-62.31,8.61T89.82,507.87a107.5,107.5,0,0,1-34.75-27.79,108.84,108.84,0,0,1-20-36.42Q24,408.18,33.8,382.78a95,95,0,0,1,31-41.77L64.51,340Q52,343.88,39.79,348.84t-25.1,11.29Q12.74,344.71,10,335.84T0,313.18q13.91-3.19,32.92-8.29t39.79-11q20.78-5.92,41.72-12.19t38.69-11.81ZM132.85,318.59a182.22,182.22,0,0,0-37,16.16A108,108,0,0,0,67.1,358.34a74.93,74.93,0,0,0-15.69,30.39q-4.2,16.78,2.16,37.12a77.3,77.3,0,0,0,13,24.28q9.12,11.75,25.32,18.71t40.24,6.88q24-.06,58.46-10.84a191.36,191.36,0,0,0,40.09-17.41q17.67-10.38,29-23.4a68.45,68.45,0,0,0,15.32-28.85q3.93-15.83-1.47-33-6.19-19.83-20.76-31.59a88.44,88.44,0,0,0-34.18-16.8,131.07,131.07,0,0,0-42-3.46A190,190,0,0,0,132.85,318.59Z"/></svg>