<svg id="Layer_1" data-name="Layer 1" xmlns="http://www.w3.org/2000/svg" viewBox="0 0 1000 1007"><defs><style>.cls-1{fill:#231f20;}</style></defs><title>tokyo_optima</title><path class="cls-1" d="M599.1,28.84A100.09,100.09,0,0,1,629.05,7.77,87.28,87.28,0,0,1,661.91.05a79.25,79.25,0,0,1,33.24,6.18,92.9,92.9,0,0,1,30.34,20.68,93.11,93.11,0,0,1,20.68,30.34,79.37,79.37,0,0,1,6.18,33.24,87.48,87.48,0,0,1-7.73,32.85,100.09,100.09,0,0,1-21.07,29.95,100,100,0,0,1-29.95,21.07,87.62,87.62,0,0,1-32.85,7.73,79.39,79.39,0,0,1-33.24-6.19,92.66,92.66,0,0,1-30.34-20.67,92.83,92.83,0,0,1-20.68-30.35,79.2,79.2,0,0,1-6.18-33.23A87.28,87.28,0,0,1,578,58.79,100.09,100.09,0,0,1,599.1,28.84Zm28.6,28.6A151.44,151.44,0,0,0,609,80.05a81.19,81.19,0,0,0-11.21,23.58,53.06,53.06,0,0,0-1.55,22.8A34.79,34.79,0,0,0,606.45,146q8.88,8.88,19.71,10.44a55,55,0,0,0,22.61-1.75,81.64,81.64,0,0,0,23.57-11.21A150.93,150.93,0,0,0,695,124.69a151.62,151.62,0,0,0,18.75-22.61A82.09,82.09,0,0,0,724.91,78.5a54.91,54.91,0,0,0,1.74-22.6q-1.54-10.83-10.44-19.71a34.76,34.76,0,0,0-19.52-10.25,53.07,53.07,0,0,0-22.8,1.55A81.31,81.31,0,0,0,650.31,38.7,150.93,150.93,0,0,0,627.7,57.44ZM890.14,173.78q3.87,7.72,7.34,11.2c2.06,2.06,5.67,4.39,10.83,7L481.6,330.31c-2.57-5.16-4.9-8.76-7-10.82-2.32-2.32-6-4.77-11.2-7.35ZM648.19,353.11a99.75,99.75,0,0,1,29.95-21.06A87.48,87.48,0,0,1,711,324.32a79.45,79.45,0,0,1,33.25,6.18,98.71,98.71,0,0,1,51,51,79.39,79.39,0,0,1,6.19,33.24,87.62,87.62,0,0,1-7.73,32.85,100,100,0,0,1-21.07,29.95,102.11,102.11,0,0,1-30.14,21.26,81,81,0,0,1-32.67,7.54,76.7,76.7,0,0,1-32.46-7,106.59,106.59,0,0,1-51-51,76.74,76.74,0,0,1-7-32.47,80.92,80.92,0,0,1,7.54-32.66A102.15,102.15,0,0,1,648.19,353.11Zm28.6,28.61A151,151,0,0,0,658,404.32a81.53,81.53,0,0,0-11.2,23.58,53.07,53.07,0,0,0-1.55,22.8,34.81,34.81,0,0,0,10.24,19.52q8.88,8.89,19.71,10.44a55.12,55.12,0,0,0,22.61-1.74,82.48,82.48,0,0,0,23.58-11.21,158.05,158.05,0,0,0,41.36-41.36A82.43,82.43,0,0,0,774,402.78a55,55,0,0,0,1.73-22.61q-1.54-10.83-10.43-19.72a34.93,34.93,0,0,0-19.52-10.24,53.38,53.38,0,0,0-22.8,1.55A81.19,81.19,0,0,0,699.4,363,151,151,0,0,0,676.79,381.72Z"/></svg>