<svg id="Layer_1" data-name="Layer 1" xmlns="http://www.w3.org/2000/svg" viewBox="0 0 1000 574"><defs><style>.cls-1{fill:#231f20;}</style></defs><title>alita</title><path class="cls-1" d="M287.75,481.76q-4.44,4.44-16.39-1.35T246.58,461.8q-12.9-12.9-28.52-35.58-15.37-4.85-34.06-2.9t-47.2,11.23q-28.52,9.3-39.27,11.11a81.55,81.55,0,0,1-24.48-.07Q37.14,440.25,15,418.07,3.12,406.24.6,393.71T6.06,373.2a14.79,14.79,0,0,1,9.28-4.53,10.12,10.12,0,0,1,8.55,2.79q5.34,5.34-.25,10.94a9.38,9.38,0,0,1-6.16,2.87,7.23,7.23,0,0,1-5.91-2.13q-3.87-3.87-.09-7.64c1.32-1.32,1.75-2.2,1.32-2.64-.94-.93-2.74-.05-5.43,2.64Q.73,382.16,3,393.62t12.3,21.49q22,22,59.41,19.63,17.49-1.08,51.84-9.47,55.86-13.5,89.88-1.35-3.69-5.18-10.6-16-16.37-25.39-27.46-36.49c-.76-.76-3.18-3-7.23-6.57a48.82,48.82,0,0,1-12.64,20.39q-18.07,18.09-47.65,20.23T65.63,392q-6.49-6.5-6.25-14.88t7.07-15.2q9.36-9.37,27.84-13.66a104.12,104.12,0,0,1,38.29-1.49,96.86,96.86,0,0,1,36.65,12.89q2.29-15.29-9.69-27.27-10.11-10.09-26.29-14.51a86.21,86.21,0,0,0-34.12-2.09c-1.81.28-2.85.28-3.12,0a.92.92,0,0,1-.16-1.16q1.4-1.39,14.88-1.42,32.29,0,50,17.69,13.71,13.71,11.25,30.48,12.83,7.07,25.73,20a119.56,119.56,0,0,1,11.34,13q4.92,6.75,23,34.19,27.27,10.68,44.79,28.18Q294.81,474.69,287.75,481.76ZM159.29,378a35.44,35.44,0,0,0,9.12-15.2Q147,347.42,115.16,347.52T67.93,363.07a20.13,20.13,0,0,0-6.29,13.6,16.56,16.56,0,0,0,5,13Q80.51,403.58,111,399.75T159.29,378Zm127,102.62q2.39-2.39-.62-8.67t-10.07-13.35a116.7,116.7,0,0,0-41.5-26.7q1.72,2.39,9,12.9a175.51,175.51,0,0,0,20.8,25.88,44.56,44.56,0,0,0,13.27,9.57Q283.72,483.17,286.27,480.61Z"/></svg>