<svg id="Layer_1" data-name="Layer 1" xmlns="http://www.w3.org/2000/svg" viewBox="0 0 1000 574"><defs><style>.cls-1{fill:#231f20;}</style></defs><title>alita</title><path class="cls-1" d="M278.75,325.24q-6.17,0-21.38-17.21Q245,294.2,240.75,279.2q-2-1.15-16.72-8.95-26.7-13.83-40.93-31.55t-20.84-45.4q-1,19.53-10.23,31.22t-23.6,11.68q-27.68,0-50.69-32.43Q56,173.31,56,146.69q0-15,7-24.87t17.48-9.88a15.3,15.3,0,0,1,10,3.31,10.29,10.29,0,0,1,4.06,8.31Q94.57,131,87,131a9.8,9.8,0,0,1-6.68-2.5,7.59,7.59,0,0,1-2.85-5.87A6.94,6.94,0,0,1,79.3,118a4.15,4.15,0,0,1,3.89-1.74l1.62.23h.47c.31-.08.46-.23.46-.46,0-1.32-1.89-2-5.69-2q-9.3,0-15.45,9.07t-6.16,22.66q0,25.92,24.3,51.61,24.77,26.16,47.78,26.16,27.79,0,30.23-32.78Q156.33,178,156.33,169c0-2.32.54-3.48,1.63-3.48s2.2,2.07,3.13,6.21a66.65,66.65,0,0,1,1.4,14.47v3.72a116.25,116.25,0,0,0,19.27,30.57q11.85,13.49,36.58,33.25,14.4,11.5,22.18,18.36.34-15.57,7.78-22.6t23.59-7.62q20-.69,20-20.92,0-29.06-30.62-58.93T201,132.16q-13.24,0-21.26,7.73t-8,20.64q0,22.66,24.23,45.44t48.28,22.79q8.47,0,13.53-4.42a14.83,14.83,0,0,0,5.06-11.74q0-15.1-21-32.66t-39-17.55q-11.14,0-12.66,10.69c0,.93-.31,1.39-.93,1.39s-.93-.46-.93-1.39q0-6.63,5.87-11.39a21.3,21.3,0,0,1,13.87-4.77q18.71,0,37.74,18.37t19,36.38q0,9-5.52,14.12T244,231q-25.09,0-49.9-23.54t-24.81-47.49q0-15,10.17-24.11t27-9.13q29.86,0,57.75,31.15Q294,191,294,222.6q0,20.1-13.25,28.59a31.82,31.82,0,0,1-7.9,3.72q-2.67.59-15.45,2.44-15.59,2.2-15.22,15.93,40.43,35.1,40.43,47.89Q282.58,325.24,278.75,325.24Zm-.7-2.68c1.47,0,2.21-.77,2.21-2.32q0-5.36-10.52-16.62a191.49,191.49,0,0,0-26.2-22.9q5.58,17.89,23.82,34.75Q275.15,322.56,278.05,322.56Z"/></svg>