<svg id="Layer_1" data-name="Layer 1" xmlns="http://www.w3.org/2000/svg" viewBox="0 0 1000 574"><defs><style>.cls-1{fill:#231f20;}</style></defs><title>alita</title><path class="cls-1" d="M878.65,233q1.07,2-3.67,23.83-3.91,18.09-10.06,21.36a9.44,9.44,0,0,1-8.2.37,12.61,12.61,0,0,1-6.67-6.08q-1.81-3.42-1.66-11.39l-.5,3.3q-2.57,14.66-4.47,20.18-2,6.14-5.71,8.1a9.37,9.37,0,0,1-8.1.43,12.38,12.38,0,0,1-6.58-6q-2.7-5.08-2.26-13.78L822.46,238a28.09,28.09,0,0,0,5-1.86,55.94,55.94,0,0,0,5.64-3.79l-2.59,45.52q-.36,6.94,1.79,11c1.4,2.64,3.21,3.36,5.43,2.18q8.87-4.71,10.84-48.22l.85-19.14a24.83,24.83,0,0,0,4.89-1.81,50.85,50.85,0,0,0,5.9-3.93l-1.86,30.37q-1.32,21.66,1.16,26.3,2,3.78,5.61,1.86,7-3.74,11.06-34.3l.72-5.24.55-2.77c0-.74.12-1.19.41-1.35A.54.54,0,0,1,878.65,233Z"/></svg>