<svg id="Layer_1" data-name="Layer 1" xmlns="http://www.w3.org/2000/svg" viewBox="0 0 1000 574"><defs><style>.cls-1{fill:#231f20;}</style></defs><title>alita</title><path class="cls-1" d="M957.69,359.87q0,2.67-12.89,8.4a209.85,209.85,0,0,1-29.45,10.28q-38.91,27.79-77,99.17l-2.5,4.69a26.75,26.75,0,0,0,4.37.31A58.48,58.48,0,0,0,875.35,471q16.1-11.73,19.53-28.29c.41-1.67,1-2.5,1.72-2.5s.94.42.94,1.25q0,9.54-10.32,21.72-18.44,22.2-47.65,22.2a46.38,46.38,0,0,1-5.47-.31l-4.37,8.59q-11.41,21.88-20.16,32.51-8.13,10-22.19,20Q748.17,574,707.07,574q-23,0-37.89-9.69t-14.92-24.85a21.36,21.36,0,0,1,4.61-13.84q4.61-5.7,11.17-5.7,10.15,0,10.16,10.63a12.33,12.33,0,0,1-3.36,8.75,10.79,10.79,0,0,1-8.2,3.6q-7.35,0-7.35-7v-3.12c0-.94-.31-1.46-.93-1.57-1.88,0-2.81,2.66-2.81,8q0,13.44,13.12,22.58t32.65,9.14q47,0,84.69-47,11.09-13.92,29.84-43-26.57-11.57-26.56-37.36,0-31.26,35.16-46.42,17.81-7.81,56.09-14.22L899.72,380l14.69-3.12a123.14,123.14,0,0,1,22-12.43q13.51-6.17,18.67-6.17C956.8,358.31,957.69,358.83,957.69,359.87Zm-47,19.93q-3.6.78-10.62,2.5-5.79,1.56-16.88,4.21-38.13,9.06-60.7,26.63t-22.58,38q0,19.68,19.22,27.8Q860.5,412.91,910.66,379.8Z"/></svg>