<svg id="Layer_1" data-name="Layer 1" xmlns="http://www.w3.org/2000/svg" viewBox="0 0 1000 574"><defs><style>.cls-1{fill:#231f20;}</style></defs><title>alita</title><path class="cls-1" d="M175.81,277.12q-1.16,94.78-.92,111.21t2.58,20.43c1.75,3,3.91,3.78,6.45,2.29q8.45-4.94,12.33-49.95c-.05-.87.15-1.44.62-1.71a.63.63,0,0,1,.76.37,3.2,3.2,0,0,1-.07,2.19l-.85,8.46Q193,407.73,184,413a10.28,10.28,0,0,1-9,.88,14.31,14.31,0,0,1-7.6-6.67A27.48,27.48,0,0,1,163.74,395q-.47-6.66,0-40,.53-40.81,0-70.27a24.29,24.29,0,0,0,5.78-2.31A22.8,22.8,0,0,0,175.81,277.12Z"/></svg>