<svg id="Layer_1" data-name="Layer 1" xmlns="http://www.w3.org/2000/svg" viewBox="0 0 1000 574"><defs><style>.cls-1{fill:#231f20;}</style></defs><title>alita</title><path class="cls-1" d="M725.54,2.51q22.88-9.12,48.89,14.87c4.82,4.58,7.55,7.7,8.2,9.33.31.78.21,1.27-.31,1.48a1.38,1.38,0,0,1-1.76-.65A59.94,59.94,0,0,0,754.75,7.6q-15.21-6-27.36-1.18-10.33,4.11-13.89,14t1.18,21.79q6.08,15.28,20.47,26T779.6,90.59q52.33,20.11,67.91,50.64,2.13-14.64,19.22-21.44,7.9-3.15,34.9-6.54,12.32-1.45,17.37-3.47,9.32-3.7,12.92-11.81t0-17.3a24.61,24.61,0,0,0-10.63-12.41c-1.37-.66-2.11-1.16-2.25-1.5a.74.74,0,0,1,.46-1.09c1.64-.66,4.23.77,7.77,4.25a31.41,31.41,0,0,1,7.41,10.55q5.05,12.69-2.11,26.18A41.16,41.16,0,0,1,910.6,126q-9.57,3.81-33.93,4.81-12.18.64-18.14,3a17.11,17.11,0,0,0-10,9.84,63.93,63.93,0,0,1,3.79,7.64c2.54,6.39,3,9.9,1.35,10.56-1.21.48-2.51-1-3.92-4.59a36.84,36.84,0,0,1-2.31-12.58A65,65,0,0,0,828,124.56q-11.41-7.61-40-19.75-33.21-14.22-51-28.74T711.71,42.65q-5.16-12.94-1.22-24.33A25.07,25.07,0,0,1,725.54,2.51Zm38.46,130c.52-.21,1.47.41,2.84,1.87q13.63,13.9,34.85,19.94t76.84,12.07q26,2.83,42.1,9T954.69,195q29.84,22.62,40.23,48.76,7.22,18.12,4.19,32.37t-15.07,19a18.18,18.18,0,0,1-12.86.62,13.13,13.13,0,0,1-8.46-7.88q-3.35-8.42,5.2-11.81a10.88,10.88,0,0,1,8.2-.09,9.31,9.31,0,0,1,5.62,5.46q2.55,6.39-4.45,9.16c-1.72.69-2.45,1.38-2.17,2.08.56,1.39,3.2,1.14,8-.75q10.74-4.28,13.45-17.05t-3.78-29.11q-11.24-28.23-41.32-43.56a149.55,149.55,0,0,0-28.58-11.35q-13.35-3.62-55.72-11.36-54.63-9.91-81.94-26.95a106.88,106.88,0,0,1-13.22-10q-7.86-6.77-8.58-8.59A1,1,0,0,1,764,132.49Zm36.64,37.29q2.85-1.12,13.91,3.31,16.92,6.76,21,17.12a17.38,17.38,0,0,1-.35,14.38,19.47,19.47,0,0,1-10.92,10q-6.72,2.69-19.94,1.49-15.69-1.4-20.87.66-6.6,2.63-8.09,10.57t2.53,18q11.43,28.74,44.77,44.93T882.46,296q13.59-5.42,18.9-17.12t.06-24.91q-4.68-11.78-16.18-21.22a60.1,60.1,0,0,0-24.89-12.52q-.86-.25-1-.51c-.27-.69,0-1.19.76-1.5q2.6-1,13.28,4.31,22.23,10.93,30.16,30.87,5.61,14.11.08,26.58t-20,18.25q-28,11.11-61.91-5.5t-46.27-47.56q-10.77-27,13-36.53,8.28-3.3,28.63-1.5,7,.54,10.58-.91,9.82-3.91,5.61-14.53-3.09-7.77-13.6-13.47A57.61,57.61,0,0,0,801.21,172c-.66-.14-1.06-.38-1.19-.73A1,1,0,0,1,800.64,169.78Z"/></svg>