<svg id="Layer_1" data-name="Layer 1" xmlns="http://www.w3.org/2000/svg" viewBox="0 0 1000 574"><defs><style>.cls-1{fill:#231f20;}</style></defs><title>alita</title><path class="cls-1" d="M163.52,234.63q2.52,0,23.25,17.37,17,14.26,17,22.41a11.56,11.56,0,0,1-4.19,9,15.12,15.12,0,0,1-10.29,3.65,22.76,22.76,0,0,1-10-2.21q-4.6-2.22-18.24-11.55-14.35-9.71-18.31-9.7-4.9,0-4.9,5.15,0,17.47,64.84,53.86c-.32,3.91-.47,6.26-.47,7.06a61.7,61.7,0,0,0,.47,7.9L173.15,319Q147.79,303,141.45,303q-3.58,0-3.59,3,0,6.12,25.78,24.1,1.56,1.08,1.68,1.68t-.72.72a1.82,1.82,0,0,1-1-.48l-3-2.28q-24.57-18.33-24.58-24.69a8.56,8.56,0,0,1,3.71-6.95,14,14,0,0,1,8.86-2.88q7.65,0,21.29,9-19.5-14.13-26.68-21.73t-7.18-14.06a11.12,11.12,0,0,1,4.31-8.86A16.09,16.09,0,0,1,151,256q8,0,24.53,11,16.86,11.25,21.53,11.25c3.27,0,4.91-1.63,4.91-4.91q0-10.66-38-36.79-1.2-.6-1.2-1.2A.64.64,0,0,1,163.52,234.63Z"/></svg>