<svg id="Layer_1" data-name="Layer 1" xmlns="http://www.w3.org/2000/svg" viewBox="0 0 1000 574"><defs><style>.cls-1{fill:#231f20;}</style></defs><title>alita</title><path class="cls-1" d="M694.11,196.42q7.32-2.91,18.24,9.71t19.33,33.8q8.48,21.3,15.21,55.23,15.32,13.23,37.84,20.3t60,10.52q37.5,3.47,50.82,6.73T923.79,345q38.78,24,53.34,60.65,7.77,19.53,4.44,35.24t-16.49,20.95a18.64,18.64,0,0,1-13,.6q-6.32-2.06-8.47-7.48-3.51-8.82,5.72-12.49a11.81,11.81,0,0,1,8.53-.25,9.15,9.15,0,0,1,5.77,5.4q2.54,6.39-3.71,8.86-3.26,1.31-2.82,2.38c.61,1.54,3.14,1.43,7.56-.33q11-4.38,14.08-18.73t-3.49-30.9q-14.47-36.36-58.78-52.2Q895.8,349.22,852,341.8q-71.16-12.23-104.36-43.17,1.7,7.81,4.27,23.76,6.26,37.44,13.53,55.75.76,1.91,5.08,11.18,9.39-11.13,24.72-17.23,29.84-11.86,65,.37t45.44,38q4.27,10.71-.18,20.26t-15.71,14q-15.46,6.15-38.91,1.89A130.8,130.8,0,0,1,806,429.34a121.62,121.62,0,0,1-35.87-33.11q-10.25,16.49-2.37,36.28,6.63,16.68,23.11,29.83a108.44,108.44,0,0,0,38.31,19.38c2.23.58,3.43,1.09,3.61,1.55a1.16,1.16,0,0,1-.38,1.41q-2.31.92-17.88-5.77-37.24-16.11-48.84-45.26-9-22.65,2.17-40.76-11.26-14.52-19.74-35.82a145.61,145.61,0,0,1-6.63-20.62q-2.34-10.23-9.56-50.89-26.16-25.89-37.65-54.79Q682.45,201.07,694.11,196.42Zm1.14,2.06q-3.93,1.58-3.6,10.31t5,20.42a146.67,146.67,0,0,0,34.6,51.44q-.81-3.6-3.93-19.34-4.42-23.37-11.12-40.2-4.36-11-10.55-17.65T695.25,198.48ZM790.7,380a44.58,44.58,0,0,0-18.08,13q17.11,28.4,53.83,44.11t62.23,5.56a25.3,25.3,0,0,0,14-12.57,20.75,20.75,0,0,0,.73-17.5Q894.3,389.72,857.29,379T790.7,380Z"/></svg>