<svg id="Layer_1" data-name="Layer 1" xmlns="http://www.w3.org/2000/svg" viewBox="0 0 1000 574"><defs><style>.cls-1{fill:#231f20;}</style></defs><title>alita</title><path class="cls-1" d="M470.93,359.91q-7.79,2.86-8.42,1.14c-.18-.49-.08-.8.29-.94a24.15,24.15,0,0,1,3.38-.82,24.79,24.79,0,0,0,3.56-.89q12.78-4.72,17.62-16.84T487,315.35q-10.29-27.92-57-42.82-14.6-4.72-67.3-14.47a207.68,207.68,0,0,1-27.93-7q-12.67-4.23-13.6-6.73a1.34,1.34,0,0,1,.86-2q1.75-.65,5.35,2.78,6.81,6.78,21.94,1.19,2.88-1.06,9.42-3.9,16.17-7,28.15-11.44,20-7.36,34.22-8.26a61.52,61.52,0,0,1,27.44,4.5,4.76,4.76,0,0,0,.88.1q-.71-3-16.47-8.37a124.22,124.22,0,0,0-16.71-4.43q-8.38-1.59-46.14-7.37-32.28-5-54.18-19.32T286.13,152q-4.45-12.08-2-21.89t10.92-12.94a12.89,12.89,0,0,1,9.14-.21,9.31,9.31,0,0,1,5.86,5.74q2.22,6-3.71,8.22a8.1,8.1,0,0,1-6,0,6.58,6.58,0,0,1-3.93-4q-1.68-4.58,3.32-6.42c1.23-.46,1.76-.94,1.58-1.44q-.56-1.48-5.65.39-7.61,2.81-9.79,11.89t2,20.32q7.93,21.54,31,34t71.77,21.45q39.72,7.38,54.2,15.22,9.9,5.42,10.73,7.65a.63.63,0,0,1-.2.6,8.25,8.25,0,0,1-2.12-.59,41.74,41.74,0,0,0-19.47-1.19q-9.42,1.74-38.59,11.87-35.62,12.31-53.79,9.95c0-.13-.19-.14-.44,0l-.12.25q.63,1.68,56.93,10.91,41.16,6.72,62.94,19.07t29.45,33.11q5.47,14.83,0,27.86T470.93,359.91Zm-48.31-151q-2,.76-9.94-2.33-12-4.65-14.7-12.07a12.13,12.13,0,0,1,.57-10,13.8,13.8,0,0,1,7.93-6.93q5.28-1.95,14.1-.89c7.35.88,12.29.84,14.82-.09,3.15-1.17,5.14-3.58,6-7.26s.35-7.92-1.43-12.75q-7.64-20.69-31-32.7t-42.21-5.07Q357,122.4,353,130.66t-.5,17.64a37,37,0,0,0,11,15.18A44,44,0,0,0,381,172.81c.4.13.62.26.67.39.17.46,0,.79-.58,1q-1.86.69-9.35-3.29-15.57-8.17-20.84-22.45-3.71-10,.47-18.72t14.54-12.54q20.13-7.42,43.86,5t31.88,34.44q3.35,9.09.7,15.91t-10.62,9.77q-5.93,2.19-20.26.74-5-.47-7.53.46-7,2.59-4.24,10.2,1.68,4.54,8.12,8.55a36.14,36.14,0,0,0,14,5.09c.73.08,1.16.28,1.27.59A.69.69,0,0,1,422.62,208.91Z"/></svg>