<svg id="Layer_1" data-name="Layer 1" xmlns="http://www.w3.org/2000/svg" viewBox="0 0 1000 574"><defs><style>.cls-1{fill:#231f20;}</style></defs><title>alita</title><path class="cls-1" d="M260.87,445.27q85-116.72,85.05-150.67a18.28,18.28,0,0,0-5.46-13.67,19.12,19.12,0,0,0-13.93-5.33q-14.59,0-28.59,15.51c-.82.82-1.43,1.22-1.84,1.22s-.74-.32-.74-1c0-.89,1.44-2.56,4.3-5q14.47-12.82,26.86-12.82a24.4,24.4,0,0,1,19.39,9.07q7.72,9.07,7.73,22.8,0,23.53-24.15,61.91l3.8-5.15,5.89-8q22.19-31,42.58-48.54t33.89-17.54a17.68,17.68,0,0,1,14.21,6.4q5.4,6.39,5.4,17a46,46,0,0,1-6,22.13q-5.94,11-26.69,38.19Q380.88,400.1,375,411.19a49.58,49.58,0,0,0-5.9,23.6q0,11.61,8.65,18.47t23.49,6.85q37.53,0,72.18-34.15t34.65-71q0-13.86-7.78-22.25t-20.65-8.4q-24.39,0-46.94,27.83-23.52,29.17-23.53,53.21,0,20.34,17.25,20.35a17.42,17.42,0,0,0,8.07-2q3.79-2,3.79-4.3c0-.65-.37-1-1.1-1a11.15,11.15,0,0,0-2.21.74,4.78,4.78,0,0,1-1.71.24q-6.36,0-6.36-6a10,10,0,0,1,9.79-9.81q7.65,0,7.66,8.09a14.86,14.86,0,0,1-5.46,11.46A18.81,18.81,0,0,1,425.94,428q-8.7,0-13.85-6.13T407,405.31q0-24,23-53.46,23.38-29.91,49.59-29.91,15.46,0,24.86,10.6t9.39,28.14q0,40.21-42.15,73.31a145.93,145.93,0,0,1-35.54,20.6q-19.12,7.73-34.44,7.72-18.63,0-28.92-10t-10.3-27.85a59.35,59.35,0,0,1,7.47-28.88q7.47-13.68,37.22-53.06,13-17.16,17.07-24.59a29.42,29.42,0,0,0,4-14,13.77,13.77,0,0,0-3.74-9.93,12.37,12.37,0,0,0-9.37-3.92q-18.39,0-50.86,37T279.86,444.54q-6.5-.5-7.23-.49A71.36,71.36,0,0,0,260.87,445.27Z"/></svg>