<?xml version="1.0" encoding="utf-8"?>
<!-- Generator: Adobe Illustrator 23.0.2, SVG Export Plug-In . SVG Version: 6.00 Build 0)  -->
<svg version="1.1" id="Layer_1" xmlns="http://www.w3.org/2000/svg" xmlns:xlink="http://www.w3.org/1999/xlink" x="0px" y="0px"
	 viewBox="0 0 1000 218" style="enable-background:new 0 0 1000 218;" xml:space="preserve">
<style type="text/css">
	.st0{fill:#231F20;}
</style>
<path class="st0" d="M715.58,110.58v1.54l-12.3,14.03c-2.69-0.9-4.87-2.18-6.54-3.84l-1.73-1.73l-50.17-0.38
	c-1.92,0-3.65,0.41-5.19,1.25c-1.54,0.83-2.95,2.02-4.23,3.56v0.19c-0.13,0-0.26,0.1-0.38,0.29c-0.13,0.19-0.19,0.32-0.19,0.38
	c0,0.06-0.07,0.16-0.19,0.29h-0.19v0.38c-0.26,0-0.38,0.13-0.38,0.38v0.38l0.96,0.77v0.38l12.3,13.45h48.06l6.73-5.57l13.46,15.18
	l-12.3,13.84l-1.92,0.77l-6.54-5.38h-54.4l-2.88,0.96c-0.38,0.38-1.03,0.89-1.92,1.54c-0.26,0-0.38,0.13-0.38,0.38
	c-0.64,0-0.96,0.32-0.96,0.96c-0.13,0-0.32,0.13-0.58,0.38l2.88,4.03l-2.5,2.69l-15.76-16.53v-0.96c0.13-0.13,0.19-0.29,0.19-0.48
	c0-0.19,0.13-0.67,0.38-1.44c0.13-0.13,0.32-0.51,0.58-1.15c4.35-6.41,10.83-9.61,19.42-9.61h0.38c0.13,0,0.26,0.06,0.38,0.19h0.77
	c0.13,0,0.26,0.06,0.38,0.19H641l-21.92-26.14c0.26-0.38,0.45-0.64,0.58-0.77l0.19-0.19v-0.38c2.43-3.07,5.09-5.73,7.98-7.98
	c2.88-2.24,6.05-3.75,9.52-4.52h58.05l3.84-3.65l-1.92-3.07l2.31-2.12L715.58,110.58z"/>
</svg>
