<?xml version="1.0" encoding="utf-8"?>
<!-- Generator: Adobe Illustrator 23.0.2, SVG Export Plug-In . SVG Version: 6.00 Build 0)  -->
<svg version="1.1" id="Layer_1" xmlns="http://www.w3.org/2000/svg" xmlns:xlink="http://www.w3.org/1999/xlink" x="0px" y="0px"
	 viewBox="0 0 1000 218" style="enable-background:new 0 0 1000 218;" xml:space="preserve">
<style type="text/css">
	.st0{fill:#231F20;}
</style>
<path class="st0" d="M685.24,57.99v7.06c-4.06-4.54-7.95-7.54-11.69-9.01c-4.38-1.62-9.01-2.84-13.88-3.65H551.56l-9.98,13.14
	l3.41,4.38l-4.14,3.65l-20.45-23.13c4.87-4.87,8.85-9.57,11.93-14.12c3.57-5.19,6.49-10.71,8.77-16.55
	c4.06,6.33,9.58,9.49,16.56,9.49h107.14c6.49-1.79,11.85-5.28,16.07-10.47l0.49,1.46c-0.49,0.49-0.73,1.09-0.73,1.83
	s-0.24,1.71-0.73,2.92c-0.49,1.22-0.85,2.11-1.1,2.68c-0.24,0.57-0.73,1.54-1.46,2.92c-0.73,1.38-2.07,3.12-4.02,5.23l-0.73,0.73
	c-0.82,0-1.22,0.4-1.22,1.22c-0.33,0-0.49,0.16-0.49,0.49c3.9,3.41,6.73,6.33,8.52,8.76c2.59,3.08,4.38,6.73,5.36,10.96H685.24z"/>
</svg>
