<?xml version="1.0" encoding="utf-8"?>
<!-- Generator: Adobe Illustrator 23.0.2, SVG Export Plug-In . SVG Version: 6.00 Build 0)  -->
<svg version="1.1" id="Layer_1" xmlns="http://www.w3.org/2000/svg" xmlns:xlink="http://www.w3.org/1999/xlink" x="0px" y="0px"
	 viewBox="0 0 1000 218" style="enable-background:new 0 0 1000 218;" xml:space="preserve">
<style type="text/css">
	.st0{fill:#231F20;}
</style>
<path class="st0" d="M479.13,118.29v5.57c-3.2-3.59-6.28-5.96-9.23-7.11c-3.46-1.28-7.11-2.24-10.96-2.88H373.6l-7.88,10.38
	l2.69,3.46l-3.27,2.88l-16.15-18.26c3.84-3.84,6.98-7.56,9.42-11.15c2.82-4.1,5.12-8.46,6.92-13.07c3.2,5,7.56,7.49,13.07,7.49
	h84.58c5.12-1.41,9.35-4.16,12.69-8.26l0.38,1.15c-0.38,0.38-0.58,0.86-0.58,1.44c0,0.58-0.19,1.34-0.58,2.31
	c-0.38,0.96-0.67,1.66-0.87,2.11c-0.19,0.45-0.58,1.22-1.15,2.31c-0.58,1.09-1.64,2.47-3.17,4.13l-0.58,0.58
	c-0.64,0-0.96,0.32-0.96,0.96c-0.26,0-0.38,0.13-0.38,0.38c3.08,2.69,5.32,5,6.73,6.92c2.05,2.43,3.46,5.32,4.23,8.65H479.13z"/>
</svg>
