<?xml version="1.0" encoding="utf-8"?>
<!-- Generator: Adobe Illustrator 23.0.2, SVG Export Plug-In . SVG Version: 6.00 Build 0)  -->
<svg version="1.1" id="Layer_1" xmlns="http://www.w3.org/2000/svg" xmlns:xlink="http://www.w3.org/1999/xlink" x="0px" y="0px"
	 viewBox="0 0 1000 218" style="enable-background:new 0 0 1000 218;" xml:space="preserve">
<style type="text/css">
	.st0{fill:#231F20;}
</style>
<path class="st0" d="M601.99,155.55c-0.32-0.33-1.05-0.61-2.19-0.85c-1.13-0.24-2.03-0.65-2.68-1.22c-0.65-0.57-1.78-1.83-3.41-3.77
	c-0.49-0.33-1.01-0.85-1.58-1.58c-0.57-0.73-1.17-1.58-1.83-2.56c0-0.33-0.08-0.53-0.24-0.61c-0.16-0.08-0.45-0.37-0.85-0.85
	c-0.4-0.49-0.69-0.89-0.85-1.22l-0.73-2.19c-0.16-0.65-0.4-1.46-0.73-2.43l-0.73-2.19c-0.16-0.49-0.32-1.26-0.49-2.31
	c-0.16-1.06-0.4-2.23-0.73-3.53l-0.73-2.92l-31.17,28.24h-1.95c-4.87-8.12-8.6-15.91-11.2-23.37c-0.49-1.79-1.22-4.54-2.19-8.28
	c-0.32-0.65-0.65-2.6-0.97-5.84c0-1.3-0.08-2.19-0.24-2.68v-3.89c0.16-0.49,0.24-0.97,0.24-1.46v-2.43
	c0.16-0.97,0.45-2.35,0.85-4.14c0.41-1.79,0.69-3.16,0.85-4.14c4.71-12.5,11.93-22.97,21.67-31.4
	c14.12-12.17,31.25-23.7,51.38-34.57c2.27-1.95,3.98-3.61,5.11-4.99c1.14-1.38,2.27-3.77,3.41-7.18v-1.46
	c0-0.81-0.08-1.46-0.24-1.95c0,0.16-0.57-1.46-1.7-4.87c-0.81-0.81-1.3-1.54-1.46-2.19c-5.36-3.08-9.74-4.79-13.15-5.11
	c-0.49,0-0.97-0.08-1.46-0.24h-1.22c-0.81,0-1.3-0.08-1.46-0.24h-3.66c-0.16,0.16-0.4,0.24-0.73,0.24
	c-2.11,0.33-3.66,0.65-4.63,0.97c-0.97,0.33-2.11,1.14-3.41,2.43v0.49h-0.24c0,0.16-0.08,0.24-0.24,0.24
	c-0.81,1.62-2.19,3.25-4.14,4.87c-1.95,1.62-3.81,2.43-5.6,2.43c-0.97-0.65-2.11-1.95-3.41-3.89c0-0.16-0.08-0.32-0.24-0.49v-0.24
	c0-0.16-0.08-0.32-0.24-0.49v-0.73c0.16,0,0.24-0.08,0.24-0.24V9.49c0.16,0,0.24-0.08,0.24-0.24V8.76c1.95-2.76,4.63-4.71,8.03-5.84
	c5.04-1.78,8.61-2.68,10.71-2.68h2.92c0.16,0,0.65-0.08,1.46-0.24h5.11c0.49,0.16,0.89,0.24,1.22,0.24
	c2.43,0.16,5.84,0.65,10.23,1.46c8.77,2.11,13.15,7.14,13.15,15.09c0,2.11-0.4,4.47-1.22,7.06c-1.62,5.03-4.79,9.9-9.5,14.61
	c-1.46,1.78-2.84,4.14-4.14,7.06c-1.3,2.92-2.03,5.36-2.19,7.3v74.98c0.32,0.97,0.73,2.19,1.22,3.65c0.33,0.16,0.49,0.4,0.49,0.73
	v0.49c0.17,0,0.29,0.12,0.37,0.37c0.08,0.24,0.53,0.44,1.34,0.61c0.16,0.32,0.65,0.57,1.46,0.73c1.14-0.49,2.76-1.46,4.87-2.92
	c0.32-0.33,0.97-0.89,1.95-1.71c0.97-0.81,1.71-1.46,2.19-1.95l4.14,4.14L601.99,155.55z M569.12,132.43l15.59-14.12V56.48
	c-6,4.22-11.45,10.22-16.32,18.01c-4.87,7.79-7.87,15.25-9.01,22.4c0,1.13-0.16,2.51-0.49,4.14c0,0.81-0.08,1.54-0.24,2.19v3.65
	c0.16,0.16,0.24,0.65,0.24,1.46v1.71c0.16,0.16,0.24,0.73,0.24,1.7c1.14,7.95,4.47,14.69,9.98,20.21V132.43z"/>
</svg>
