<?xml version="1.0" encoding="utf-8"?>
<!-- Generator: Adobe Illustrator 23.0.2, SVG Export Plug-In . SVG Version: 6.00 Build 0)  -->
<svg version="1.1" id="Layer_1" xmlns="http://www.w3.org/2000/svg" xmlns:xlink="http://www.w3.org/1999/xlink" x="0px" y="0px"
	 viewBox="0 0 1000 218" style="enable-background:new 0 0 1000 218;" xml:space="preserve">
<style type="text/css">
	.st0{fill:#231F20;}
</style>
<path class="st0" d="M464.37,44.85c-0.13,0.13-0.19,0.51-0.19,1.15v0.96c-0.13,0.38-0.19,0.71-0.19,0.96
	c-0.9,5.13-3.72,10.12-8.46,14.99c-4.36,4.36-9.23,6.86-14.61,7.5h-1.15c-0.13,0.13-0.51,0.19-1.15,0.19h-1.15
	c-0.13,0.13-0.51,0.19-1.15,0.19c-1.03,0.26-1.8,0.38-2.31,0.38h-2.88c-0.13,0-0.32-0.06-0.58-0.19H429c-0.13,0-0.26-0.06-0.38-0.19
	h-0.38v83.02l0.77,0.38c4.36,0.51,8.97-1.12,13.84-4.9c4.87-3.78,8.71-7.52,11.53-11.24l4.04-5.19c1.54-2.05,2.69-3.65,3.46-4.81
	l1.73-0.38v2.69c0,10.89-5.96,21.08-17.88,30.56c-0.77,0.64-1.99,1.6-3.65,2.88c-3.72,2.95-7.88,5.06-12.49,6.34
	c-0.64,0.13-3.84,0.89-9.61,2.31c-5.77,0.64-9.48,0.96-11.15,0.96c-14.48,0-27.62-4.29-39.41-12.88
	c-12.3-8.84-19.48-20.43-21.53-34.78v-0.58c-0.13-0.13-0.19-0.38-0.19-0.77v-0.77c-0.13-0.13-0.19-0.38-0.19-0.77v-0.58h-0.19v-0.77
	c-0.13-0.13-0.19-0.32-0.19-0.58v-3.46c0-0.38,0.06-0.8,0.19-1.25c0.13-0.45,0.26-0.74,0.38-0.87v-1.15c0-0.13,0.06-0.29,0.19-0.48
	c0.13-0.19,0.19-0.45,0.19-0.77c0-0.32,0.13-0.99,0.38-2.02c0-0.51,0.13-1.28,0.38-2.31c4.87-19.73,15.82-34.85,32.87-45.35
	c-0.26,0-0.58-0.06-0.96-0.19h-1.15c-0.26,0-0.58-0.06-0.96-0.19h-1.15c-0.77,0-1.22-0.06-1.35-0.19h-1.54
	c-0.51,0-0.96-0.06-1.35-0.19h-1.15c-13.84,0-24.41,5.57-31.72,16.72l-1.54-0.77c0.38,0.13,0.51,0.19,0.38,0.19l-0.19-0.19V78.1
	l-0.19-0.19v-0.19c0-9.22,3.65-16.85,10.96-22.87c7.82-6.41,16.02-10.44,24.61-12.11c0.51-0.13,2.31-0.38,5.38-0.77
	c0.38,0,0.9-0.06,1.54-0.19c0.64,0,1.09,0,1.35,0c0.51-0.13,1.41-0.19,2.69-0.19h2.31c0.13,0.13,0.45,0.19,0.96,0.19h1.54
	c0.38,0.13,0.7,0.19,0.96,0.19h1.73l50.37,8.26c0.26,0.26,0.41,0.42,0.48,0.48c0.06,0.07,0.22,0.1,0.48,0.1h1.35
	c0,0.13,0.13,0.19,0.38,0.19h3.08c0.38,0,0.8-0.06,1.25-0.19c0.45-0.13,0.83-0.22,1.15-0.29c0.32-0.06,0.87-0.22,1.63-0.48
	l1.73-0.58c0.38-0.26,0.93-0.61,1.63-1.06c0.7-0.45,1.18-0.8,1.44-1.06c0.26-0.26,0.51-0.54,0.77-0.87c0.26-0.32,0.58-0.8,0.96-1.44
	c0.38-0.64,0.67-1.12,0.86-1.44c0.19-0.32,0.54-0.87,1.06-1.63h0.38l0.19-0.19v-0.19h0.38l0.19-0.19h0.38
	c0.13,0,0.25-0.06,0.38-0.19h0.38c0.13,0,0.26-0.06,0.38-0.19h0.19V44.85z M386.52,64.07c-2.56,1.54-4.42,3.2-5.58,5
	c-2.56,3.72-4.74,7.62-6.54,11.72c-0.13,0.26-0.71,1.6-1.73,4.04c-0.77,1.92-1.6,4.23-2.5,6.92c-0.26,1.67-0.77,4.1-1.54,7.3
	c-0.13,1.03-0.32,2.56-0.58,4.61c-0.13,1.03-0.19,2.56-0.19,4.61c0,3.84,0.51,7.82,1.54,11.91c1.79,5.13,3.4,8.97,4.81,11.53
	c0.13,0.38,0.22,0.64,0.29,0.77c0.06,0.13,0.22,0.32,0.48,0.58l0.58,0.58c0,0.13,0.13,0.36,0.38,0.67c0.25,0.32,1.22,1.7,2.88,4.13
	c0.9,0.77,2.05,1.99,3.46,3.65c0.26,0.13,0.51,0.42,0.77,0.87c0.25,0.45,0.41,0.74,0.48,0.86c0.06,0.13,0.22,0.19,0.48,0.19
	c0.13,0,0.32-0.13,0.58-0.38l0.77-0.77c0.13-0.13,0.29-0.26,0.48-0.38c0.19-0.13,0.32-0.26,0.38-0.38c0.06-0.13,0.22-0.32,0.48-0.58
	l0.77-0.77c0.13-0.26,0.32-0.51,0.58-0.77c0,1.03,0.58-0.77,1.73-5.38l0.58-2.31c0.38-1.02,0.58-2.69,0.58-5V66.38h-0.19v-0.19
	c-0.13,0-0.19-0.06-0.19-0.19V65.8h-0.19v-0.38c-0.26,0-0.38-0.13-0.38-0.38v-0.58L386.52,64.07z M411.89,68.88v45.35
	c0,6.66-2.18,12.75-6.54,18.26c-4.36,5.51-9.04,9.99-14.03,13.45c-0.26,0.26-0.51,0.38-0.77,0.38c-0.38,0.38-0.84,0.71-1.35,0.96
	c-0.38,0.26-0.64,0.45-0.77,0.58c4.1,3.33,8.52,5.77,13.27,7.3c4.74,1.54,9.61,2.31,14.61,2.31h1.73c0.38,0,1.09-0.13,2.11-0.38
	c0.13,0,0.45-0.06,0.96-0.19h0.96c0.13,0,0.45-0.06,0.96-0.19h0.77V70.41L411.89,68.88z"/>
</svg>
