<?xml version="1.0" encoding="utf-8"?>
<!-- Generator: Adobe Illustrator 23.0.2, SVG Export Plug-In . SVG Version: 6.00 Build 0)  -->
<svg version="1.1" id="Layer_1" xmlns="http://www.w3.org/2000/svg" xmlns:xlink="http://www.w3.org/1999/xlink" x="0px" y="0px"
	 viewBox="0 0 1000 218" style="enable-background:new 0 0 1000 218;" xml:space="preserve">
<style type="text/css">
	.st0{fill:#231F20;}
</style>
<path class="st0" d="M887.16,167.32h-3.08c2.05-2.05,4.93-5.32,8.65-9.8c2.44-3.2,4.17-6.92,5.19-11.15V59.7
	c-0.9-3.72-2.75-6.98-5.58-9.8l-6.34,5l-3.65-3.84l22.11-19.03c0.13,0.13,0.26,0.19,0.38,0.19h0.58c1.28,0.26,2.21,0.58,2.79,0.96
	c0.58,0.38,1.38,0.77,2.4,1.15c5.26,6.02,8.59,12.62,10,19.79l29.8-22.1l33.64,18.26h1.73l0.38-0.38c0.13-0.13,0.32-0.19,0.58-0.19
	h0.77c1.03-0.26,1.83-0.51,2.4-0.77c0.58-0.26,1-0.9,1.25-1.92v-0.19c0.13-0.13,0.19-0.26,0.19-0.38v-0.58
	c0.26-0.26,0.38-0.51,0.38-0.77v-1.54c0-0.13-0.06-0.26-0.19-0.38V42.6l-0.38-1.15c0-0.13-0.06-0.26-0.19-0.38
	c-0.13-0.77-0.32-1.7-0.58-2.79c-0.25-1.09-0.38-1.89-0.38-2.4v-0.38c0.13-0.13,0.23-0.29,0.29-0.48c0.07-0.19,0.23-0.42,0.48-0.67
	v-0.38c0.13,0,0.19-0.06,0.19-0.19v-0.38c0.13,0,0.26-0.03,0.38-0.1c0.13-0.06,0.29-0.16,0.48-0.29c0.19-0.13,0.36-0.26,0.48-0.38
	c0.51-0.13,0.9-0.26,1.15-0.38h0.57c0.13,0,0.26-0.06,0.38-0.19h0.38c1.41,0,2.63,0.71,3.65,2.11c1.03,1.02,1.54,2.56,1.54,4.61
	c-0.51,1.66-1.41,3.91-2.69,6.73c-0.77,1.54-1.73,3.78-2.89,6.73l-19.03,28.25c6.41,4.87,11.53,10.76,15.38,17.68
	c4.23,7.3,6.35,14.73,6.35,22.29c0,1.28-0.19,2.88-0.58,4.8c-0.38,2.43-0.64,3.97-0.77,4.61c0,0.13-0.13,0.7-0.38,1.73
	c0-0.38-0.32,0.7-0.96,3.27c0,0.38-0.13,0.89-0.38,1.54c-3.71,9.35-9.67,16.37-17.88,21.04c-8.2,4.68-16.91,7.27-26.14,7.78
	c-0.13,0-0.45,0.06-0.96,0.19h-5c-0.38-0.13-1.03-0.19-1.92-0.19h-2.11c-0.38-0.13-1.09-0.26-2.12-0.38
	c-1.02-0.13-1.86-0.22-2.5-0.29c-0.64-0.07-1.6-0.22-2.88-0.48c-1.92-0.13-3.65-0.51-5.19-1.15l-19.03-9.42
	c-0.13-0.13-0.32-0.07-0.58,0.19l-0.77,0.77c-3.33,3.33-6.28,5.89-8.84,7.69c-3.46,2.43-7.11,4.04-10.96,4.8V167.32z M954.63,149.45
	c9.61-1.03,17.97-4.71,25.09-11.05c7.11-6.34,10.67-14.32,10.67-23.93v-1.35l-0.38-1.15c0-0.13-0.06-0.32-0.19-0.58v-0.77
	c0-0.13-0.06-0.32-0.19-0.58v-0.58c-1.41-9.74-7.11-18.13-17.11-25.17l-26.91,39.01c0.51,0,0.96,0.19,1.35,0.58
	c-0.13,0,0.29,0.16,1.25,0.48c0.96,0.32,1.54,0.51,1.73,0.58c0.19,0.06,0.74,0.22,1.64,0.48c0.9,0.26,1.51,0.38,1.82,0.38
	c0.32,0,0.8,0.06,1.44,0.19h1.15c6.41,0,11.15-2.88,14.23-8.65c0.13,0.38,0.26,0.77,0.38,1.15c0.13,0.38,0.19,0.89,0.19,1.54
	c0.13,0.13,0.19,0.32,0.19,0.58v0.77c0,6.79-5,12.04-14.99,15.76c-0.9,0.38-2.21,0.74-3.94,1.06c-1.73,0.32-2.98,0.48-3.75,0.48
	c-0.38,0-2.82-0.32-7.3-0.96h-0.58c0-0.13-0.13-0.19-0.38-0.19h-0.58c0-0.13-0.13-0.19-0.38-0.19c-0.77-0.26-1.28-0.38-1.54-0.38
	h-0.77c-0.13-0.13-0.38-0.19-0.77-0.19l-5.19,6.73c3.08,1.66,6.63,3.01,10.67,4.03c4.04,1.02,7.79,1.54,11.25,1.54L954.63,149.45z
	 M971.74,74.5l5.96-9.61l-39.6-18.64h-1.73l-15.76,13.07l0.38,15.18H971.74z M926.57,139.65l34.03-49.39h-39.6l1.54,42.47l2.88,6.92
	H926.57z"/>
</svg>
