<?xml version="1.0" encoding="utf-8"?>
<!-- Generator: Adobe Illustrator 23.0.2, SVG Export Plug-In . SVG Version: 6.00 Build 0)  -->
<svg version="1.1" id="Layer_1" xmlns="http://www.w3.org/2000/svg" xmlns:xlink="http://www.w3.org/1999/xlink" x="0px" y="0px"
	 viewBox="0 0 1000 218" style="enable-background:new 0 0 1000 218;" xml:space="preserve">
<style type="text/css">
	.st0{fill:#231F20;}
</style>
<path class="st0" d="M868.8,43.92h0.38c0.13,0,0.26-0.06,0.38-0.19h0.77l0.19-0.19h0.19l-17.88,18.26l-26.91-9.03v93.97
	c0.51,0.51,1.09,0.77,1.73,0.77h0.96c0.25,0.13,0.64,0.19,1.15,0.19h0.96c0.13,0.13,0.45,0.19,0.96,0.19h1.73
	c13.2,0,26.85-6.08,40.95-18.26l-1.54,6.15c-11.02,17.81-25.44,27.54-43.25,29.21l-23.07-0.77c-14.23-2.56-25.63-9.61-34.22-21.14
	c-8.21-10.89-12.3-23.83-12.3-38.82v-0.77c0-0.26,0.06-0.45,0.19-0.58v-1.54c0-0.26,0.06-0.45,0.19-0.58v-0.38l5.57-21.14
	c8.2-16.27,19.48-27.67,33.83-34.21l2.69-0.38c-0.13,0.38-0.45,0.83-0.96,1.34c-0.51,0.51-0.96,0.83-1.35,0.96
	c-2.05,1.79-4.1,3.81-6.15,6.05c-2.05,2.24-4.17,4.64-6.35,7.21c-3.97,4.74-6.73,10.06-8.26,15.95l-0.38,1.92v0.96
	c-0.13,0.26-0.19,0.58-0.19,0.96c-0.26,1.28-0.38,1.86-0.38,1.73v0.77c-0.13,0.26-0.19,0.58-0.19,0.96
	c-0.26,0.77-0.42,1.41-0.48,1.92c-0.07,0.51-0.1,1.34-0.1,2.5c-0.13,0.77-0.19,1.47-0.19,2.11c0,0.64,0,1.28,0,1.92
	c0,6.28,0.96,12.37,2.88,18.26c1.66,5.13,4.68,10.57,9.04,16.33c0.13-0.13,0.38-0.45,0.77-0.96c0,0.51,0.38-0.38,1.15-2.69
	l0.38-1.54V65.82L830.74,32C842.53,39.95,855.21,43.92,868.8,43.92z M812.86,56.6v42.09c0,5-1.35,9.48-4.04,13.45
	c-1.67,2.69-4.68,6.47-9.04,11.34c-0.26,0.26-0.51,0.55-0.77,0.86c-0.26,0.32-0.58,0.74-0.96,1.25l-1.92,1.92
	c-0.9,0.64-1.99,1.79-3.27,3.46c1.79,1.79,3.87,3.68,6.25,5.67c2.37,1.99,5.16,4.07,8.36,6.25c4.49,2.56,8.91,3.84,13.27,3.84
	l-0.38-96.47L812.86,56.6z"/>
</svg>
