<?xml version="1.0" encoding="utf-8"?>
<!-- Generator: Adobe Illustrator 23.0.2, SVG Export Plug-In . SVG Version: 6.00 Build 0)  -->
<svg version="1.1" id="Layer_1" xmlns="http://www.w3.org/2000/svg" xmlns:xlink="http://www.w3.org/1999/xlink" x="0px" y="0px"
	 viewBox="0 0 1000 218" style="enable-background:new 0 0 1000 218;" xml:space="preserve">
<style type="text/css">
	.st0{fill:#231F20;}
</style>
<path class="st0" d="M201.99,121.53l24.99,25.75l-33.06,29.02v19.03l15.96,7.69l11.92-8.84l2.69,3.65L198.72,218h-0.77
	c-0.64,0-1.54-0.16-2.69-0.48c-1.15-0.32-1.89-0.51-2.21-0.58c-0.32-0.06-1.83-1.06-4.52-2.98c-0.26-0.13-0.64-0.45-1.15-0.96
	c-0.13-0.13-0.32-0.32-0.58-0.58c-0.26-0.26-0.58-0.48-0.96-0.67s-1.06-0.58-2.02-1.15c-0.96-0.58-2.15-0.99-3.56-1.25l-1.73-0.58
	c-0.38,0-0.87-0.06-1.44-0.19c-0.58-0.13-1.19-0.26-1.82-0.38c-0.64-0.13-1.25-0.32-1.83-0.58c-0.58-0.26-1.82-0.51-3.75-0.77
	c4.23-4.23,6.34-9.22,6.34-14.99v-53.62c4.48-1.66,9.03-4.04,13.65-7.11c3.84-2.56,7.94-5.64,12.3-9.22V121.53z M193.91,138.63
	v30.17c0.77-0.13,1.66-0.64,2.69-1.54l2.88-2.31c0.26-0.13,0.48-0.29,0.67-0.48c0.19-0.19,0.35-0.32,0.48-0.38
	c0.13-0.06,0.32-0.19,0.58-0.38c0.26-0.19,0.41-0.32,0.48-0.38c0.06-0.06,0.35-0.29,0.86-0.67c0.51-0.38,0.9-0.7,1.15-0.96
	c1.15-0.64,2.37-1.5,3.65-2.59c1.28-1.09,2.37-2.08,3.27-2.98L193.91,138.63z"/>
</svg>
