<?xml version="1.0" encoding="utf-8"?>
<!-- Generator: Adobe Illustrator 23.0.2, SVG Export Plug-In . SVG Version: 6.00 Build 0)  -->
<svg version="1.1" id="Layer_1" xmlns="http://www.w3.org/2000/svg" xmlns:xlink="http://www.w3.org/1999/xlink" x="0px" y="0px"
	 viewBox="0 0 1000 218" style="enable-background:new 0 0 1000 218;" xml:space="preserve">
<style type="text/css">
	.st0{fill:#231F20;}
</style>
<g>
	<g>
		<path class="st0" d="M91.8,6.21h2.11c0.38,0.38,0.83,0.58,1.35,0.58h2.69c0.13,0.13,0.32,0.19,0.58,0.19h1.35l33.64,6.73
			c0.13,0.38,0.38,0.58,0.77,0.58h1.15c0.26,0.26,0.51,0.38,0.77,0.38h0.96c1.02,0,3.78-0.32,8.27-0.96
			c0.9-0.26,2.24-0.58,4.04-0.96c0.51-0.26,1.18-0.54,2.02-0.87c0.83-0.32,1.44-0.54,1.83-0.67c0.38-0.13,0.9-0.32,1.54-0.58
			c0.64-0.26,1.09-0.38,1.35-0.38c1.02-0.64,1.99-1.02,2.88-1.15c0.26-0.13,0.51-0.26,0.77-0.38c0.26-0.13,0.48-0.19,0.67-0.19
			s0.7-0.22,1.54-0.67c0.83-0.45,1.76-0.74,2.79-0.86l2.88-0.38v2.69c-0.13,0.13-0.19,0.26-0.19,0.38v0.58
			c-0.13,0.13-0.19,0.26-0.19,0.38v0.77c-9.74,8.71-15.57,19.99-17.49,33.82v50.35c0,1.41-0.13,3.27-0.38,5.57
			c0,1.15-0.26,2.88-0.77,5.19c-2.95,13.97-10.06,26.59-21.34,37.86c-11.28,11.27-23.9,16.91-37.87,16.91h-1.92l-23.07-6.73
			c-0.64,0-1.47,0.13-2.5,0.38c-0.51,0.38-1.15,0.77-1.92,1.15l-0.96,0.96c-0.77,0.77-1.28,1.34-1.54,1.73
			c-0.26,0.38-0.48,0.67-0.67,0.87c-0.19,0.19-0.32,0.35-0.38,0.48c-0.06,0.13-0.19,0.32-0.38,0.58c-0.19,0.26-0.29,0.45-0.29,0.58
			c0,0.13-0.06,0.29-0.19,0.48c-0.13,0.19-0.29,0.38-0.48,0.58s-0.29,0.35-0.29,0.48l-0.38,0.38v0.38l-0.38,0.38l-2.69-0.77
			c1.54-6.15,3.94-11.56,7.21-16.24c3.27-4.68,8.1-7.72,14.51-9.13c3.08,0.51,7.62,1.09,13.65,1.73c1.41,0.26,3.65,0.7,6.73,1.34
			c0.77,0.13,1.92,0.38,3.46,0.77c0.77,0.26,1.86,0.58,3.27,0.96c6.54-0.38,9.8-4.49,9.8-12.3v-1.15c-0.13-0.38-0.19-0.83-0.19-1.35
			v-1.34c-0.13-0.13-0.26-0.54-0.38-1.25c-0.13-0.7-0.26-1.38-0.38-2.02c-0.13-0.64-0.26-1.25-0.38-1.83
			c-0.13-0.58-0.26-1.15-0.38-1.73c-0.13-0.58-0.19-0.99-0.19-1.25c0-0.13,0-0.26,0-0.38c-0.13-0.13-0.23-0.26-0.29-0.38
			c-0.07-0.13-0.13-0.35-0.19-0.67c-0.07-0.32-0.16-0.67-0.29-1.06C99.04,101.78,87.89,94.8,73.93,94.8
			c3.97-3.97,8.91-5.96,14.8-5.96c0.77,0,2.11,0.13,4.04,0.38c1.02,0,2.5,0.26,4.42,0.77c0.26,0,0.51,0,0.77,0
			c0.26,0.13,0.48,0.26,0.67,0.38c0.19,0.13,0.55,0.19,1.06,0.19c0.26,0,0.51,0,0.77,0c0.25,0.13,0.48,0.26,0.67,0.38
			c0.19,0.13,0.54,0.19,1.06,0.19v-2.69c0-4.48-2.5-8.71-7.5-12.68c-4.61-3.46-9.36-5.51-14.22-6.15c-1.03-0.38-2.5-0.58-4.42-0.58
			c2.69-3.71,6.98-5.77,12.88-6.15c0.13,0,0.32-0.06,0.58-0.19h3.27c0.38,0.13,0.9,0.19,1.54,0.19h1.54
			c0.38,0.13,0.96,0.19,1.73,0.19c1.54,0.38,3.84,0.9,6.92,1.54c1.41-7.69,4.04-14.48,7.88-20.37c3.46-5.25,8.65-10.38,15.57-15.37
			c0.26-0.13,0.48-0.26,0.67-0.38c0.19-0.13,0.35-0.22,0.48-0.29c0.13-0.06,0.32-0.19,0.58-0.38c0.26-0.19,0.45-0.35,0.58-0.48
			c0.13-0.13,0.45-0.35,0.96-0.67c0.51-0.32,0.9-0.54,1.15-0.67c0.26-0.13,0.48-0.26,0.67-0.38c0.19-0.13,0.35-0.22,0.48-0.29
			c0.13-0.06,0.32-0.19,0.58-0.38c0.26-0.19,0.48-0.32,0.67-0.38c0.19-0.06,0.48-0.29,0.86-0.67c0.38,0,0.77-0.19,1.15-0.58
			l-22.3,6.73l-9.61-0.77l-24.22-7.88h-2.69c-1.8,0.51-3.62,1.06-5.48,1.63c-1.86,0.58-3.49,1.57-4.9,2.98v0.38
			c-0.13,0.13-0.19,0.32-0.19,0.58v0.38c-0.13,0.13-0.19,0.32-0.19,0.58v0.38c-0.26,0.26-0.38,0.64-0.38,1.15v1.34L67.01,31v0.58
			l0.19,0.19v0.19c0.38-0.26,1.28-0.51,2.69-0.77c1.41-0.26,2.37-0.38,2.88-0.38h0.77C73.67,30.93,73.99,31,74.5,31h0.96
			c0.13,0.13,0.41,0.23,0.87,0.29c0.45,0.07,0.87,0.16,1.25,0.29c0.38,0.13,0.77,0.26,1.15,0.38l0.77,0.77
			c0,0.26,0.13,0.48,0.38,0.67c0.26,0.19,0.45,0.42,0.58,0.67c0.13,0.26,0.19,0.51,0.19,0.77c0,0.26,0.1,0.51,0.29,0.77
			c0.19,0.26,0.48,0.9,0.86,1.92c0,0.26,0.06,0.58,0.19,0.96v0.77c0,2.31-0.9,4.26-2.69,5.86c-1.8,1.6-4.1,2.4-6.92,2.4h-0.58
			c-0.13,0-0.26-0.06-0.38-0.19c-0.13,0-0.26,0-0.38,0l-1.73-0.58h-0.38c-0.13,0-0.26-0.06-0.38-0.19h-0.58l-0.19-0.19h-0.19
			c-1.8-1.54-3.11-3.04-3.94-4.52c-0.83-1.47-1.57-3.23-2.21-5.28c0-0.26,0-0.45,0-0.58c-0.13-0.26-0.23-0.45-0.29-0.58
			c-0.07-0.13-0.1-0.45-0.1-0.96c0-0.26,0-0.45,0-0.58c-0.13-0.26-0.19-0.45-0.19-0.58v-0.96c0-0.89,0.03-1.57,0.1-2.02
			c0.06-0.45,0.13-0.8,0.19-1.06c0.06-0.26,0.16-0.51,0.29-0.77c0-0.13,0-0.26,0-0.38c0.64-2.56,1.66-4.87,3.08-6.92
			c0.9-1.28,2.63-3.2,5.19-5.77c6.79-5.51,14.16-8.46,22.11-8.84V6.21z M152.55,17.74c-8.46,4.74-14.8,9.87-19.03,15.37
			c-4.61,6.15-8.01,13.45-10.19,21.91l-2.12,70.34c-0.13,1.28-0.32,2.44-0.58,3.46l-0.58,2.88c-0.26,0.77-0.38,1.25-0.38,1.44
			c0,0.19-0.07,0.45-0.19,0.77c-0.13,0.32-0.26,0.61-0.38,0.87c-0.26,0.77-0.38,1.22-0.38,1.34c-0.13,0.51-0.32,0.9-0.58,1.15
			c-5.13,6.02-10.19,10.5-15.19,13.45c6.41-0.64,12.21-3.4,17.4-8.26c5.19-4.87,8.17-10.57,8.94-17.11l2.31-72.64
			c1.66-6.79,4.23-13,7.69-18.64c3.46-5.64,7.88-10.95,13.26-15.95V17.74z"/>
	</g>
</g>
</svg>
