<svg xmlns="http://www.w3.org/2000/svg" viewBox="0 0 664.61 810.24"><title>han</title><g id="Layer_5" data-name="Layer 5"><path d="M407.33,240.66c187,0,231.89,52,231.89,110.09,0,54-45.36,92.24-177.36,92.24-172.76,0-218.12-55.55-218.12-113.65C243.74,275.83,293.69,240.66,407.33,240.66Zm52,193.67c129.44,0,171.23-34.66,171.23-85.11,0-53.51-47.9-96.32-222.2-96.32-110.58,0-157.47,30.06-157.47,79C250.88,379.8,293.69,434.33,459.32,434.33ZM415,284.49c131.48,0,200.28,13.76,200.28,57.59,0,29.05-24.46,59.12-151.87,59.12-120.27,0-198.24-16.82-198.24-62.17C265.15,299.27,334,284.49,415,284.49ZM462.88,390c66.77,0,144.74-8.67,144.74-48.93,0-37.2-83.07-47.39-192.64-47.39-72.88,0-141.17,12.74-141.17,46.37C273.81,378.78,362,390,462.88,390Z"/></g></svg>