<svg xmlns="http://www.w3.org/2000/svg" viewBox="0 0 664.61 810.24"><title>han</title><g id="Layer_2" data-name="Layer 2"><path d="M50.94,504.13q-39.18,0-48-19t9.27-53.1l53.1-96.92a58.07,58.07,0,0,0,5.9-15.38A28.51,28.51,0,0,0,71.59,309H193a22.93,22.93,0,0,0-7.38,5.9,37.79,37.79,0,0,0-4.84,7.16L127.22,425.75q-9.7,18.54-5.48,25.91T136.91,459q13.91,0,29.29-7.38a176.24,176.24,0,0,0,29.92-18.33,312.71,312.71,0,0,0,27.39-23.18q12.84-12.21,21.7-21.91A31.35,31.35,0,0,1,244,401.52c-1.42,4.63-3.24,7.94-5.48,9.9a361.06,361.06,0,0,1-35.82,37.29,221.74,221.74,0,0,1-41.51,29.5,204.44,204.44,0,0,1-49.72,19.18Q84.23,504.13,50.94,504.13Zm123.9-336.28q12.21,0,21.28,4.42A36,36,0,0,1,217,201.35a49.25,49.25,0,0,1-2.1,20.86,81.62,81.62,0,0,1-9.69,20.65A76.22,76.22,0,0,1,190,259.92a73.07,73.07,0,0,1-20,11.8,64.06,64.06,0,0,1-23.81,4.43,45.61,45.61,0,0,1-20.65-4.43,36.37,36.37,0,0,1-20.65-29.07A49.3,49.3,0,0,1,107,221.79a60.83,60.83,0,0,1,9.06-21.07,76.86,76.86,0,0,1,36-28.65A62.84,62.84,0,0,1,174.84,167.85Z"/></g></svg>