<svg xmlns="http://www.w3.org/2000/svg" viewBox="0 0 664.61 810.24"><title>han</title><g id="Layer_8" data-name="Layer 8"><path d="M351.54,625.35l-2.86-12.74a158.05,158.05,0,0,1,69.77-4q34.44,5.85,53.92,25.33l14.29,19q-11.16-13.77-14.29-19l19,27.29q3.12,6.24,6.49,12.73L509,695.51q12.21,24.16,19.36,35.21a125.84,125.84,0,0,0,16.76,20.66q12.72,12.74,26.89,16.49t41.71,1.7l9.61-.78,2.86,12.73a219.53,219.53,0,0,1-57.43,6,104.72,104.72,0,0,1-37.41-7.79,91.88,91.88,0,0,1-30.41-20q-14.55-14.55-36.38-59.25-18.7-38.46-32-51.71Q403.51,619.65,351.54,625.35Z"/></g></svg>