<svg xmlns="http://www.w3.org/2000/svg" viewBox="0 0 664.61 810.24"><title>han</title><g id="Layer_7" data-name="Layer 7"><path d="M441.32,469q0,5-37.28,46.57-38.28,42.89-104.46,80.07l-17.11,29.87q-52,88.89-102.66,130.5-53.68,44-91.93,44-34.22,0-34.22-31.54,0-38.58,52-79.17,28.53-22.14,48.32-33.55,30.53-17.44,93.93-44.62l4.7-2.35,58.71-104.34q24.48-42.6,63.07-109.37a66.94,66.94,0,0,0,15.77,2.35A172.72,172.72,0,0,0,415,395.06q-26.85,43.62-81.19,137.55L302.93,589q43.23-24.13,70.53-48.25t59.15-66.33q4-6.7,7-6.7A1.65,1.65,0,0,1,441.32,469Zm-191.4,146.1q-95.61,48.65-121.44,66.43-70.12,48.31-70.12,88.24a23.12,23.12,0,0,0,8,18Q74.47,795,86.54,795q35.22,0,69.78-39.25,29.19-32.9,89.58-133.86ZM450.55,331.32q0,11.4-9.9,21.13T419,362.18q-13.75,0-13.75-14.42,0-10.74,9.89-20.8t21-10.07Q450.55,316.89,450.55,331.32Z"/></g></svg>