<svg xmlns="http://www.w3.org/2000/svg" viewBox="0 0 664.61 810.24"><defs><style>.cls-1{fill:#f06378;}</style></defs><title>han</title><g id="Layer_2" data-name="Layer 2"><path class="cls-1" d="M50.94,504.13q-39.18,0-48-19t9.27-53.1l53.1-96.92a58.07,58.07,0,0,0,5.9-15.38A28.51,28.51,0,0,0,71.59,309H193a22.93,22.93,0,0,0-7.38,5.9,37.79,37.79,0,0,0-4.84,7.16L127.22,425.75q-9.7,18.54-5.48,25.91T136.91,459q13.91,0,29.29-7.38a176.24,176.24,0,0,0,29.92-18.33,312.71,312.71,0,0,0,27.39-23.18q12.84-12.21,21.7-21.91A31.35,31.35,0,0,1,244,401.52c-1.42,4.63-3.24,7.94-5.48,9.9a361.06,361.06,0,0,1-35.82,37.29,221.74,221.74,0,0,1-41.51,29.5,204.44,204.44,0,0,1-49.72,19.18Q84.23,504.13,50.94,504.13Zm123.9-336.28q12.21,0,21.28,4.42A36,36,0,0,1,217,201.35a49.25,49.25,0,0,1-2.1,20.86,81.62,81.62,0,0,1-9.69,20.65A76.22,76.22,0,0,1,190,259.92a73.07,73.07,0,0,1-20,11.8,64.06,64.06,0,0,1-23.81,4.43,45.61,45.61,0,0,1-20.65-4.43,36.37,36.37,0,0,1-20.65-29.07A49.3,49.3,0,0,1,107,221.79a60.83,60.83,0,0,1,9.06-21.07,76.86,76.86,0,0,1,36-28.65A62.84,62.84,0,0,1,174.84,167.85Z"/></g><g id="Layer_3" data-name="Layer 3"><path class="cls-1" d="M233.86,135.36a22.49,22.49,0,0,1-2.14-3.21,22.56,22.56,0,0,0-2.15-3.21,29.92,29.92,0,0,1-2.14-3,43.77,43.77,0,0,0-3.75-4.82,46.35,46.35,0,0,1-3.75-4.82,23,23,0,0,0-2.68-3.48c-.7-1.07-2-2.85-4-5.36s-3.3-4.1-4-4.82l-4-4q-2.92-2.94-4-4a45.36,45.36,0,0,1-5.08-3.75c-2.68-2.14-4.37-3.57-5.09-4.29-1.07-1.07-1.61-1.78-1.61-2.14-.35,0-.54-.54-.54-1.61,0-1.42.19-2.14.54-2.14,0-.35.54-1.07,1.61-2.14.72-.35,2.41-1.34,5.09-3s4.38-2.58,5.08-2.94a32.86,32.86,0,0,1,4.29-3.22c2.14-1.42,3.4-2.49,3.75-3.21a71,71,0,0,0,6.69-6.16c3.05-3,4.92-4.91,5.63-5.63a65.5,65.5,0,0,0,5.09-7.23A67.76,67.76,0,0,1,231.72,40a10.18,10.18,0,0,1,1.87-2.41c.9-.88,1.53-1.34,1.88-1.34a9.07,9.07,0,0,1,2.14-.53,9,9,0,0,1,2.14.53c.36,0,1,.54,1.88,1.61s1.52,1.79,1.87,2.14a35.74,35.74,0,0,0,2.41,3.75c1.26,1.79,2.5,3.67,3.75,5.63s2.5,3.84,3.75,5.62a35.33,35.33,0,0,0,2.41,3.21,41.17,41.17,0,0,0,4.55,5.09c2.33,2.33,4.74,4.82,7.23,7.5s4.92,5.09,7.23,7.23,4,3.75,5.09,4.82c.72,0,1.26.45,1.61,1.34a6.58,6.58,0,0,1,.54,2.41c0,.36-.45,1-1.34,1.88l-2.41,2.41c-.71.36-2.5,1.33-5.36,2.94a40.89,40.89,0,0,0-4.82,3q-2.13,1.08-7.5,5.89c-3.56,3.21-5.89,5.36-7,6.43-.35.36-1.25,1.52-2.68,3.48s-2.49,3.48-3.21,4.55a18,18,0,0,0-1.88,2.95,55.57,55.57,0,0,1-3.21,5.09c-1.25,1.79-2.32,3.48-3.22,5.09a16.05,16.05,0,0,1-1.87,2.94c0,.36-.27.72-.8,1.07a9.36,9.36,0,0,0-1.34,1.07h-1.61ZM207.08,84.48a4.75,4.75,0,0,0,2.41-.81,4.74,4.74,0,0,1,1.87-.8c.36-.35,1.17-1.15,2.42-2.41s2.67-2.68,4.28-4.28,3.13-3.12,4.55-4.56a14.66,14.66,0,0,0,2.68-3.21,62.94,62.94,0,0,0,7.5-7.77q5.36-6.15,7-8.3l-2.14-2.14h-2.14c0,.36-.54,1-1.61,1.88a8.32,8.32,0,0,0-2.14,2.4c-.72.72-2.41,2.68-5.09,5.9s-4.37,5.18-5.09,5.89c-.35.36-1.25,1.16-2.68,2.41s-3,2.59-4.55,4-3.12,2.67-4.55,3.75a32.05,32.05,0,0,0-2.68,2.14,17.36,17.36,0,0,0-1.61,2.14,4.18,4.18,0,0,0-.8,2.14A16.29,16.29,0,0,0,204.4,85,15.78,15.78,0,0,0,207.08,84.48Zm14.46,14.46,28.39-28.39a15.33,15.33,0,0,0,.53-2.68,14.41,14.41,0,0,0-.53-3.21,26.33,26.33,0,0,0-3.21-3.75,15.87,15.87,0,0,0-3.22-2.68,7.88,7.88,0,0,0-2.67,1.61,32.36,32.36,0,0,0-3.22,2.68c-1.07,1.07-2.85,2.86-5.36,5.35s-5.17,5.28-8,8.31-5.44,6-7.77,8.84-4,4.81-5.09,5.89a4.54,4.54,0,0,0,.81,1.87,10.05,10.05,0,0,0,1.33,1.88,10.06,10.06,0,0,0,1.88,2.41l1.87,1.87h4.29Zm8,11.78c.36,0,1-.44,1.88-1.33l2.41-2.41a43.58,43.58,0,0,1,3.75-5.09c2.14-2.68,3.58-4.37,4.28-5.09.36-.35,1.26-1.34,2.68-3a69.65,69.65,0,0,1,5.09-5.08c2-1.79,3.75-3.49,5.36-5.1s2.59-2.58,2.94-2.94c.36-.71.8-1.51,1.34-2.41a4.6,4.6,0,0,0,.81-1.87q0-.54-.81-1.08A8.15,8.15,0,0,1,258,74.3h-4.28q-1.6,1.61-4.82,5.09t-7.23,7.23c-2.68,2.5-5.09,4.92-7.23,7.23s-3.75,4-4.83,5.09c-.34.36-1.06,1.26-2.14,2.68a25,25,0,0,0-2.14,3.21V107a20.26,20.26,0,0,1,2.14,3.74l1.08.54Zm407.08,31.34c-2.5-2.68-4.11-4.37-4.82-5.09a34.59,34.59,0,0,1-4-2.68,37.32,37.32,0,0,1-4-3.21c-.72-.35-1.52-.71-2.41-1.07a5.5,5.5,0,0,1-1.87-1.07q-2.68,0-9.64-.27l-14.73-.54q-7.77-.25-14.73-.53t-9.64-.27H544.52c-2.14,0-6.6-.08-13.39-.27s-14.73-.35-23.83-.53-18.83-.36-29.19-.54-20.09-.35-29.19-.54-17.06-.26-23.84-.26H363c-.72.35-2.06,1-4,1.87s-3.3,1.52-4,1.88c-.35.36-1.78,1.6-4.28,3.75a32.54,32.54,0,0,1-5.9,4.28l-2.14,2.14a26,26,0,0,0-3.21,5.09c-1.42,2.68-2.32,4.38-2.68,5.09l-38.57-38.57c-.35-.35-1.07-1.15-2.14-2.41s-2.32-2.67-3.75-4.28-2.67-3-3.74-4.29a15.69,15.69,0,0,1-2.15-2.94,7.25,7.25,0,0,0-.26-1.61,7.29,7.29,0,0,1-.28-1.61,17.36,17.36,0,0,1,.54-2.67c0-.35.54-1.08,1.61-2.14a22.56,22.56,0,0,1,3.21-2.15,22.58,22.58,0,0,0,3.22-2.14,33,33,0,0,1,4.28-3.21,36.88,36.88,0,0,0,3.75-2.68,11.51,11.51,0,0,0,2.95-2.68,50.84,50.84,0,0,1,4.28-4.29q2.42-2.13,4.29-4a12.84,12.84,0,0,0,2.4-3,16.46,16.46,0,0,0,1.88-2.94,16.74,16.74,0,0,1,2.41-3.49c.36-.71,1-2,1.88-4s1.52-3.3,1.87-4a6.41,6.41,0,0,0,1.07-2.68,17.66,17.66,0,0,1,1.07-3.21,22.4,22.4,0,0,1,.81-4.29,11.17,11.17,0,0,1,1.33-3.75c0-.35.36-.62,1.08-.8a7.32,7.32,0,0,1,1.61-.27,4.39,4.39,0,0,1,3.21,1.07c.72.72,2.68,2.41,5.89,5.09s5.35,4.38,6.43,5.09l11.78,5.89a25.8,25.8,0,0,0,4,1.34,18.5,18.5,0,0,0,4,.8c1.43,0,3.84.1,7.22.27s7,.36,10.72.54,7.23.36,10.44.53,5.36.27,6.43.27h76.6q5.89,0,19.81.27t29.73.8q15.81.54,30,.81t19.55.26q1.06.56,5.89,1.07A24.21,24.21,0,0,1,589,60.38c1.07.36,3.92,1.25,8.57,2.67s7.85,2.51,9.64,3.22a5.58,5.58,0,0,0,2.15,1.07,6,6,0,0,1,2.13,1.07l6.43,4.29c3.22,2.14,5.17,3.39,5.89,3.75l1.88,1.87a10.54,10.54,0,0,1,1.88,2.41,41.56,41.56,0,0,1,3.21,4,37.59,37.59,0,0,1,2.68,4,20.91,20.91,0,0,1,2.14,3.74q1.6,3.22,2.14,4.29a53.47,53.47,0,0,1,1.87,5.09,50.78,50.78,0,0,0,1.88,5.09q1.06,2.68,4.29,11.78c0,1.07.08,2.95.26,5.62s.35,5.54.54,8.57.35,5.9.54,8.57.26,4.56.26,5.63h-5.89C640.75,146.44,639.15,144.74,636.65,142.06Zm-294.06-86a3.32,3.32,0,0,0,1.61-1.87,6,6,0,0,0,.53-1.88c0-.35-.53-1.07-1.6-2.14a11.43,11.43,0,0,0-2.68-2.14H336.7l-2.14,2.14a16.71,16.71,0,0,0-1.88,3.21l-2.94,5.89c-1.08,2.15-2.15,4.11-3.22,5.9a21.61,21.61,0,0,1-2.14,3.21,43.73,43.73,0,0,1-4.82,5.36q-3.74,3.75-8,8l-8,8a41.79,41.79,0,0,1-5.36,4.83V96.8h4.29ZM314.2,110.72l46.6-46.06V62.52a9.73,9.73,0,0,0-1.87-2.41l-1.88-1.88a16,16,0,0,1-2.14-.26,16.65,16.65,0,0,0-2.68-.27,15,15,0,0,0-3.21.53L308.31,98.94a20.51,20.51,0,0,1-2.14,3.75v2.14l3.21,3.22a15,15,0,0,0,3.22,2.67,1.55,1.55,0,0,0,1.07.54Zm17.41,8q3.5-3.21,7.23-6.7c2.5-2.31,4.91-4.55,7.24-6.69a32.13,32.13,0,0,0,4.55-4.82c1.42-1.43,3.93-3.84,7.49-7.23s7.24-7,11-10.71l10.71-10.72q5.1-5.08,7.23-7.23a1.89,1.89,0,0,0-2.14-2.14c-3.22-.35-5.17-.54-5.89-.54s-2.69.19-5.9.54a4.88,4.88,0,0,0-2.41.8,11.55,11.55,0,0,0-1.87,1.34l-46.6,46.06a23,23,0,0,1-2.15,3.22,6.59,6.59,0,0,0-1.6,3.21c1.07,1.79,1.79,3,2.14,3.75,0,.36.54,1.07,1.61,2.14h4.28A48.61,48.61,0,0,0,331.61,118.76Zm45.26-18.21c3.22-2.49,5.72-4.56,7.5-6.16S388.12,91,390.26,89s3.75-3.48,4.82-4.55a38.14,38.14,0,0,0,5.36-5.09c2.5-2.68,4.11-4.37,4.82-5.09a61.41,61.41,0,0,0,4-4.82q3-3.74,4-4.82a10.31,10.31,0,0,0-1.87-1.34,4.68,4.68,0,0,0-1.87-.8H399.37a6.61,6.61,0,0,0-2.14.8,9.36,9.36,0,0,0-2.15,1.34q-1.06,1.08-3.74,3.48c-1.79,1.61-3.75,3.48-5.9,5.63s-4.19,4.2-6.16,6.16a34,34,0,0,0-4,4.55q-2.68,3.21-7.5,8.57c-3.22,3.57-4.82,5.54-4.82,5.89v1.61Zm62.67-35.89a9,9,0,0,0-2.68-1.34,10.29,10.29,0,0,0-3.21-.8,11.44,11.44,0,0,1-1.88-.27,12.16,12.16,0,0,0-2.41-.27,23.83,23.83,0,0,0-3.75.54q-1.07,0-4,2.41t-4,3.48q-3.21,3.21-8,8.3l-9.38,9.91c-3,3.21-6.69,7.33-11,12.32v1.61h16.07L437.4,68.41Zm-13.12,37.49q4.56-.53,5.08-1.6l32.68-32.14V64.66H449.72q-.54,0-6.7,5.36t-9.37,8.57a17,17,0,0,1-2.95,3.48c-1.6,1.6-3.21,3.4-4.82,5.36s-3.21,3.84-4.82,5.62-2.76,3-3.48,3.75a11.55,11.55,0,0,0-1.34,1.87,4.66,4.66,0,0,0-.8,1.88,3.34,3.34,0,0,0,1.87,1.6,6.58,6.58,0,0,0,2.41.54A63.3,63.3,0,0,0,426.42,102.15Zm28.65,0c1.43-.35,2.33-.88,2.68-1.6L492,66.27l-1.61-1.61c-.35-.35-1.24-.53-2.67-.53h-8c-2.14,0-3.39.18-3.75.53a5.16,5.16,0,0,0-3.75,1.61c-.35,0-.71.27-1.07.8a7.75,7.75,0,0,1-1.07,1.34q-3.74,4.29-10.44,11.25t-11,11.78q-4.27,4.83-4.82,5.36l-2.14,3.75c.72.72,2.41,1.25,5.09,1.6s4.38.54,5.09.54A14.39,14.39,0,0,0,455.07,102.15Zm23,.54a16.9,16.9,0,0,1,3.47-1.07c1.61-.35,2.42-.71,2.42-1.07l32.67-32.14V63.59q-1.6,0-6.43.27t-5.89.8a9.28,9.28,0,0,0-2.14.54,6,6,0,0,0-2.14,1.07l-30,30.53a9.07,9.07,0,0,0-.53,2.14,4.18,4.18,0,0,0,.53,1.61c0,.36.8.72,2.41,1.07a16.83,16.83,0,0,1,3.48,1.07h2.15Zm34.28-2.14c2.49-2.15,4.46-3.93,5.89-5.36s2.86-3,4.28-4.55,2.68-3,3.75-4q1.08-1.07,3.75-4l5.62-6.16q3-3.23,5.36-6.16t3.48-4a5.13,5.13,0,0,0-3.75-1.61,3.13,3.13,0,0,0-2.14-.53h-5.89c-1.42,0-2.14.18-2.14.53A8.52,8.52,0,0,0,527.92,66a19.31,19.31,0,0,0-3.21,2.41c-.72.72-2,1.88-3.76,3.48s-3.56,3.4-5.35,5.36-3.57,3.84-5.36,5.62l-3.74,3.75q-2.69,2.68-6.43,7.23t-3.75,5.09v1.61Zm6.43-19.28a1.42,1.42,0,0,1,1.6,1.6c0,.72-.54,1.07-1.6,1.07-1.43,0-2.15-.35-2.15-1.07C516.67,81.8,517.39,81.27,518.82,81.27Zm16.06,20.88c2.15-.35,3.4-.88,3.75-1.6l30.53-30V66.27H554.7c-3.22,2.86-5.89,5.27-8,7.23l-6.42,5.89q-3.21,3-5.36,5.09c-1.07,1.07-2.22,2.32-3.48,3.75s-2.59,3-4,4.55-3,3.67-4.82,6.16v1.61c0,.72,1,1.25,3,1.6a28.86,28.86,0,0,0,5.09.54A32.4,32.4,0,0,0,534.88,102.15Zm23.84.81a22.39,22.39,0,0,1,2.41-.27,4.74,4.74,0,0,0,1.87-.8,10.73,10.73,0,0,0,1.88-1.34L593.26,72.7V70.55c0-.35-.26-.71-.8-1.07a7.75,7.75,0,0,1-1.34-1.07,6.09,6.09,0,0,0-1.87-1.07,5.46,5.46,0,0,1-1.88-1.07h-4.28a5.75,5.75,0,0,1-2.15,1.07c-1.07.36-1.6.72-1.6,1.07L551,96.8a11.55,11.55,0,0,0-1.34,1.87,4.66,4.66,0,0,0-.8,1.88,1.89,1.89,0,0,0,2.14,2.14,45.6,45.6,0,0,0,4.82.54A21.94,21.94,0,0,0,558.72,103Zm30.26-.27a103.19,103.19,0,0,0,8.57-7.5Q600.76,92,604,88.5c2.14-2.32,3.92-4.2,5.36-5.63.34-.71.8-1.51,1.33-2.41a4.48,4.48,0,0,0,.8-1.87l-2.13-2.14a5.88,5.88,0,0,0-2.15-1.08c-1.07-.35-1.61-.71-1.61-1.07h-6.43l-24.1,24.64v3.75Zm24.64,2.14q1.07-1.06,5.09-4.82a39.26,39.26,0,0,0,5.08-5.35V88.77a12.21,12.21,0,0,0-4.28-4.29h-4.28c0,.36-.81,1.34-2.42,3s-2.77,2.76-3.47,3.48-2.42,2.67-5.1,5.89-4.37,5.18-5.09,5.89A10.22,10.22,0,0,0,601,104a4.82,4.82,0,0,0,2.41.8h10.18ZM625.4,107l2.15,2.14a4.79,4.79,0,0,1,1.87.8,4.73,4.73,0,0,0,2.41.8c0,.36.35.54,1.07.54h1.61c0-.71-.09-2.14-.27-4.28a14.05,14.05,0,0,0-.8-4.29c0-.35-.54-1.07-1.61-2.14h-4.28l-2.15,2.14c-1.07,1.07-1.61,1.79-1.61,2.14S624.33,105.9,625.4,107Z"/></g><g id="Layer_4" data-name="Layer 4"><path class="cls-1" d="M546.18,195.55H576.8l-2,7.9H564.45a254,254,0,0,0-31.6,2,114.06,114.06,0,0,0-31.6,8.89l20.25-68.14h-1a167.42,167.42,0,0,1-42.71,47.4,119.59,119.59,0,0,1-26.66,15.06,75.41,75.41,0,0,1-28.4,5.68q-23.69,0-35.05-11.6a39.08,39.08,0,0,1-11.36-28.39q0-5.44,3.46-17.53t8.64-27.65q5.18-15.55,11.35-32.59T411.14,64.7q5.19-14.82,8.64-25.67c2.31-7.25,3.46-11.85,3.46-13.83a20.83,20.83,0,0,0-2.72-10.62c-1.8-3.13-4.69-4.69-8.64-4.69q-7.89,0-15.55,5.43a84.52,84.52,0,0,0-14.07,12.6,174.45,174.45,0,0,0-11.61,14.32q-5.17,7.14-8.14,10.61l-4.94-3.46q4-5.43,10.12-14.07a126.69,126.69,0,0,1,14.81-17A87,87,0,0,1,402.25,4a51.14,51.14,0,0,1,24.44-5.92q17.3,0,24.69,9.87t7.41,26.66q0,7.41-3.46,20.49t-8.64,28.64q-5.18,15.56-11.35,32.34T424,147.41q-5.19,14.55-8.64,25.92t-3.46,16.79q0,7.4,4.45,11.84t14.31,4.45q8.89,0,23.21-6.67t29.88-20a184.14,184.14,0,0,0,29.37-32.59,146,146,0,0,0,21.23-44.44L564,1h39.5Z"/></g><g id="Layer_5" data-name="Layer 5"><path class="cls-1" d="M407.33,240.66c187,0,231.89,52,231.89,110.09,0,54-45.36,92.24-177.36,92.24-172.76,0-218.12-55.55-218.12-113.65C243.74,275.83,293.69,240.66,407.33,240.66Zm52,193.67c129.44,0,171.23-34.66,171.23-85.11,0-53.51-47.9-96.32-222.2-96.32-110.58,0-157.47,30.06-157.47,79C250.88,379.8,293.69,434.33,459.32,434.33ZM415,284.49c131.48,0,200.28,13.76,200.28,57.59,0,29.05-24.46,59.12-151.87,59.12-120.27,0-198.24-16.82-198.24-62.17C265.15,299.27,334,284.49,415,284.49ZM462.88,390c66.77,0,144.74-8.67,144.74-48.93,0-37.2-83.07-47.39-192.64-47.39-72.88,0-141.17,12.74-141.17,46.37C273.81,378.78,362,390,462.88,390Z"/></g><g id="Layer_6" data-name="Layer 6"><path class="cls-1" d="M648.84,474.1v8.61H577.6v1.57c32.1,2.34,78.29,15.65,78.29,38.36,0,34.44-100.2,48.53-173,48.53H175.21V539.86h457.2c9.39-3.91,16.43-10.18,16.43-17.22s-7-13.31-16.43-17.23H175.21V474.1Z"/></g><g id="Layer_8" data-name="Layer 8"><path class="cls-1" d="M351.54,625.35l-2.86-12.74a158.05,158.05,0,0,1,69.77-4q34.44,5.85,53.92,25.33l14.29,19q-11.16-13.77-14.29-19l19,27.29q3.12,6.24,6.49,12.73L509,695.51q12.21,24.16,19.36,35.21a125.84,125.84,0,0,0,16.76,20.66q12.72,12.74,26.89,16.49t41.71,1.7l9.61-.78,2.86,12.73a219.53,219.53,0,0,1-57.43,6,104.72,104.72,0,0,1-37.41-7.79,91.88,91.88,0,0,1-30.41-20q-14.55-14.55-36.38-59.25-18.7-38.46-32-51.71Q403.51,619.65,351.54,625.35Z"/></g><g id="Layer_7" data-name="Layer 7"><path class="cls-1" d="M441.32,469q0,5-37.28,46.57-38.28,42.89-104.46,80.07l-17.11,29.87q-52,88.89-102.66,130.5-53.68,44-91.93,44-34.22,0-34.22-31.54,0-38.58,52-79.17,28.53-22.14,48.32-33.55,30.53-17.44,93.93-44.62l4.7-2.35,58.71-104.34q24.48-42.6,63.07-109.37a66.94,66.94,0,0,0,15.77,2.35A172.72,172.72,0,0,0,415,395.06q-26.85,43.62-81.19,137.55L302.93,589q43.23-24.13,70.53-48.25t59.15-66.33q4-6.7,7-6.7A1.65,1.65,0,0,1,441.32,469Zm-191.4,146.1q-95.61,48.65-121.44,66.43-70.12,48.31-70.12,88.24a23.12,23.12,0,0,0,8,18Q74.47,795,86.54,795q35.22,0,69.78-39.25,29.19-32.9,89.58-133.86ZM450.55,331.32q0,11.4-9.9,21.13T419,362.18q-13.75,0-13.75-14.42,0-10.74,9.89-20.8t21-10.07Q450.55,316.89,450.55,331.32Z"/></g></svg>