<svg xmlns="http://www.w3.org/2000/svg" viewBox="0 0 664.61 810.24"><title>han</title><g id="Layer_4" data-name="Layer 4"><path d="M546.18,195.55H576.8l-2,7.9H564.45a254,254,0,0,0-31.6,2,114.06,114.06,0,0,0-31.6,8.89l20.25-68.14h-1a167.42,167.42,0,0,1-42.71,47.4,119.59,119.59,0,0,1-26.66,15.06,75.41,75.41,0,0,1-28.4,5.68q-23.69,0-35.05-11.6a39.08,39.08,0,0,1-11.36-28.39q0-5.44,3.46-17.53t8.64-27.65q5.18-15.55,11.35-32.59T411.14,64.7q5.19-14.82,8.64-25.67c2.31-7.25,3.46-11.85,3.46-13.83a20.83,20.83,0,0,0-2.72-10.62c-1.8-3.13-4.69-4.69-8.64-4.69q-7.89,0-15.55,5.43a84.52,84.52,0,0,0-14.07,12.6,174.45,174.45,0,0,0-11.61,14.32q-5.17,7.14-8.14,10.61l-4.94-3.46q4-5.43,10.12-14.07a126.69,126.69,0,0,1,14.81-17A87,87,0,0,1,402.25,4a51.14,51.14,0,0,1,24.44-5.92q17.3,0,24.69,9.87t7.41,26.66q0,7.41-3.46,20.49t-8.64,28.64q-5.18,15.56-11.35,32.34T424,147.41q-5.19,14.55-8.64,25.92t-3.46,16.79q0,7.4,4.45,11.84t14.31,4.45q8.89,0,23.21-6.67t29.88-20a184.14,184.14,0,0,0,29.37-32.59,146,146,0,0,0,21.23-44.44L564,1h39.5Z"/></g></svg>