<svg id="Layer_1" data-name="Layer 1" xmlns="http://www.w3.org/2000/svg" viewBox="0 0 1000 914"><defs><style>.cls-1{fill:#231f20;}</style></defs><title>taipei_trajan</title><path class="cls-1" d="M208.41,376.31c38.22,0,84.09,5.63,105.81,19.71,16.5,10.86,25.75,23.34,25.75,40.23,0,22.53-18.1,35.81-52.3,35.81-39.83,0-92.94-32.59-124.72-65.58h-70c-41,0-69.2,11.27-69.2,35,0,17.71,10.46,34.61,23.74,45.07,8.44,6.43,3.21,13.27-6.84,7.24C16.09,479.3,0,455.16,0,428.61c0-42.24,47.07-52.3,83.28-52.3H138.4c-3.22-4-10.86-14.89-15.28-20.92-6-8.05.8-15.29,9.25-4.83,5.23,6.84,15.69,20.52,20.92,25.75Zm-30.18,30.17c27,21.33,63.17,42.25,109,42.25,25.35,0,39.83-3.22,39.83-17.3,0-18.11-54.32-24.95-106.62-24.95Z"/></svg>