<svg id="Layer_1" data-name="Layer 1" xmlns="http://www.w3.org/2000/svg" viewBox="0 0 1000 914"><defs><style>.cls-1{fill:#231f20;}</style></defs><title>taipei_trajan</title><path class="cls-1" d="M228.49,643.77c19.15-.54,24.89-2.73,26.54-9.3a57.43,57.43,0,0,0,1.36-12,1.87,1.87,0,0,1,1.92-1.91c1.37,0,1.91,1.64,1.91,4.38,0,13.68-.82,23.25-.82,25.44s.82,12.31.82,23.25c0,2.46-.27,3.83-1.91,3.83a1.87,1.87,0,0,1-1.92-1.91,38,38,0,0,0-1.36-9.85c-1.65-6-7.94-6.84-29-6.84H92.8c-9.31,0-11.77-1.37-11.77-3.28,0-2.74,4.65-6.84,7.12-9.31,3.83-3.82,41-38.84,79.33-76.05,24.62-23.8,52.25-49.51,59.91-56.9l-116.54,2.46c-15,.28-20.24,1.65-21.61,9a77.07,77.07,0,0,0-1.09,11.77c0,1.64-1.37,1.91-2.19,1.91-1.37,0-1.64-1.91-1.64-4.65,0-10.94.54-22.43.54-25.17s-.54-10.67-.54-20.52c0-2.46.27-4.37,1.64-4.37a2.71,2.71,0,0,1,2.19,2.73,27.63,27.63,0,0,0,.54,5.75c1.64,7.93,6.29,8.48,20.25,8.48l136.24.55c15.32,0,16.68.27,16.68,1.91,0,2.46-1.91,4.92-14.22,18.33-2.19,2.46-36.39,37.2-62.92,62.65-29.28,27.9-57.73,55-65.93,62.37Z"/></svg>