<svg id="Layer_1" data-name="Layer 1" xmlns="http://www.w3.org/2000/svg" viewBox="0 0 1000 914"><defs><style>.cls-1{fill:#231f20;}</style></defs><title>taipei_trajan</title><path class="cls-1" d="M786.36,736.58c-6,0-11.67-.4-11.67-4,0-4,3.62-6,8-6.84,40.23-8.45,48.68-45.47,54.31-90.53L842.28,593H812.11c-4.83,0-6.84.81-8.45.81s-2-1.61-1.21-3.63l4.83-8.44c1.21-2.82,2.82-3.22,5.63-3.22H844.7l4-28.16c4.83-34.61,14.49-76,41.84-99.78C912.69,431.22,936,428,951.32,428c12.87,0,26.55,2,35,4.83,4,.8,7.24,1.61,10.86,2,2,.4,2.82,2.41,2.82,4.83,0,19.71-1.21,41-2,45.86-.4,2.82-1.21,4.83-3.22,4.83s-3.22-1.61-3.22-6c0-5.64-3.22-18.51-9.65-27-7.25-9.66-20.12-15.29-39.84-15.29-31.38,0-53.91,27-59.54,75.64l-7.24,60.75h43.85c11.27,0,16.9-2,18.91-2s3.22,1.2,2,4l-4.42,9.65c-1.21,2.42-3.22,3.23-6.44,3.23H872.86l-2,16.89c-2.82,22.13-11.67,74.43-44.66,103l.81.8,125.53-1.2c22.12-.41,33.39-8.86,37.41-33,.4-2.81,1.61-4,3.22-4s2.82,1.21,2.82,6c0,4.42-4,34.6-6.84,48.68-1.61,6.84-1.61,8-24.55,8-14.88,0-27.35-.4-40.63-1.2-13.28-.41-27-.81-43.86-.81Z"/></svg>