<svg id="Layer_1" data-name="Layer 1" xmlns="http://www.w3.org/2000/svg" viewBox="0 0 1000 914"><defs><style>.cls-1{fill:#231f20;}</style></defs><title>taipei_trajan</title><path class="cls-1" d="M107.19,222.61c-4.76,0-9.18,0-9.18-3.06,0-3.4,3.06-5.1,6.46-5.78,32.28-6.8,34.32-35.68,40.78-71L149.67,119H125.54c-3.74,0-5.44.34-6.8.34s-1.7-1.36-1-3.06l3.74-6.45c1-2.38,2-2.72,4.42-2.72h25.83l1.7-10.54C157.83,69,166,37.05,188.08,18,205.75,2.38,220.36,0,232.6,0a92.93,92.93,0,0,1,26.17,3.74,44.8,44.8,0,0,0,8.84,1.7c1.7.34,2,1.7,2,3.74,0,16-1,33.3-1.69,37-.34,2.38-.68,3.74-2.38,3.74s-2.72-1.36-2.72-4.76c0-4.42-2.72-15-7.82-21.75-5.78-7.82-13.93-11.21-29.91-11.21-22.77,0-37.72,19.37-43.5,58.11l-5.44,36.71h35c9.17,0,13.59-1.7,15.29-1.7s2.72,1,1.7,3.4l-3.74,7.47c-1,2-2.38,2.72-5.1,2.72h-45.2l-2.72,17c-2.72,17.67-4.08,43.5-30.25,68l.68.68,90.75-1c17.33-.34,26.85-7.14,29.91-26.51.34-2.38,1.36-3.06,2.72-3.06s2.38,1,2.38,4.76c0,3.4-3.4,27.87-5.78,39.08-1.36,5.44-1.36,6.46-19.71,6.46-11.9,0-21.76-.34-32.29-1-10.54-.34-21.75-.68-35.35-.68Z"/></svg>