<svg id="Layer_1" data-name="Layer 1" xmlns="http://www.w3.org/2000/svg" viewBox="0 0 1000 914"><defs><style>.cls-1{fill:#231f20;}</style></defs><title>taipei_trajan</title><path class="cls-1" d="M80,912.3c-5.1,0-9.85-.34-9.85-3.4,0-3.4,3-5.1,6.79-5.78,34-7.13,41.13-38.4,45.89-76.47L127.24,791H101.75c-4.08,0-5.77.68-7.13.68s-1.7-1.36-1-3.06l4.07-7.14c1-2.38,2.38-2.72,4.76-2.72h26.85l3.4-23.79c4.08-29.23,12.24-64.23,35.35-84.28a76,76,0,0,1,51.32-19c10.88,0,22.43,1.69,29.57,4.07,3.4.68,6.12,1.36,9.17,1.7,1.7.34,2.38,2,2.38,4.08,0,16.65-1,34.67-1.7,38.75-.34,2.37-1,4.07-2.71,4.07s-2.72-1.36-2.72-5.09c0-4.76-2.72-15.64-8.16-22.77-6.12-8.16-17-12.92-33.65-12.92-26.51,0-45.54,22.77-50.3,63.89l-6.12,51.32h37c9.52,0,14.27-1.69,16-1.69s2.72,1,1.7,3.39l-3.74,8.16c-1,2-2.71,2.72-5.43,2.72H153.07l-1.7,14.27c-2.37,18.7-9.85,62.88-37.72,87l.68.68,106-1c18.69-.34,28.21-7.48,31.61-27.87.34-2.38,1.36-3.4,2.72-3.4s2.37,1,2.37,5.1c0,3.74-3.39,29.23-5.77,41.12-1.36,5.78-1.36,6.8-20.73,6.8-12.58,0-23.12-.34-34.33-1-11.22-.34-22.77-.68-37.05-.68Z"/></svg>