<svg id="Layer_1" data-name="Layer 1" xmlns="http://www.w3.org/2000/svg" viewBox="0 0 1000 914"><defs><style>.cls-1{fill:#231f20;}</style></defs><title>taipei_trajan</title><path class="cls-1" d="M778.74,499.53c17.7,0,25.75-.4,30.17-1.2,2.82-.41,4.83,1.2,3.62,3.62l-4,8c-1.21,2.42-3.22,4.83-5.63,4.83-2,0-8.85-1.21-18.51-1.21H759.83c-5.23,57.54-16.5,97.77-39,125.13-14.48,17.3-31.78,31.78-66,31.78-16.5,0-29-2.41-40.23-7.24-4.43-2-4.83-4-4.83-6,0-5.63,1.21-20.11,4.42-43.45.81-5.63,2-7.64,3.62-7.64,2.42,0,2.82,2,2.82,7.64a56.4,56.4,0,0,0,6.44,26.56c4.42,8.44,15.69,16.49,33,16.49,22.13,0,39.43-10.06,49.49-33.39,9.65-22.53,15.69-70,20.11-109.84H683c-18.1,0-25.34,1.61-28.16,1.61s-4-2.41-2-6l4.42-7.65c1.61-2.81,4.83-4,8-4,2.82,0,22.13,1.61,37.42,1.61h28.16c4.83-33.39,12.07-103,18.91-136.79,9.66-47.47,25-74.83,51.9-87.71,8.05-4,19.72-6,29-6,10.46,0,14.89,1.21,14.89,3.62s-1.21,4-2.82,4c-20.12,0-35.41,2.42-47.07,21.73-9.26,15.29-14.89,39-20.52,88.51l-12.88,113Z"/></svg>