<?xml version="1.0" encoding="utf-8"?>
<!-- Generator: Adobe Illustrator 23.0.2, SVG Export Plug-In . SVG Version: 6.00 Build 0)  -->
<svg version="1.1" id="Layer_1" xmlns="http://www.w3.org/2000/svg" xmlns:xlink="http://www.w3.org/1999/xlink" x="0px" y="0px"
	 viewBox="0 0 1000 632.5" style="enable-background:new 0 0 1000 632.5;" xml:space="preserve">
<g>
	<path d="M315.24,158.64c-4.12,9.1-16.68,21.66-35.09,30.11c-8.88,4.33-18.41,7.8-30.33,7.8c-11.05,0-20.8-0.65-30.33-0.65
		c-8.66,0-16.68,0.22-19.06,0.65l-1.73-7.36c20.36-22.31,51.34-46.14,67.15-63.48c-6.93-0.43-20.58-1.08-26.21-1.08
		c-4.98,0-9.96,1.73-14.95,4.33l-1.73-3.68c2.17-15.16,8.88-25.13,19.06-25.13c9.32,0,27.08,4.98,44.19,4.98
		c6.07,0,12.56-0.87,19.06-1.52l3.25,3.68c-21.23,23.18-54.37,49.61-68.02,63.48c2.6-0.65,5.85-1.3,11.92-1.3
		c6.28,0,15.38,1.08,25.34,1.08c5.42,0,10.4-1.08,17.55-6.28c6.28-4.55,10.61-8.88,13.21-14.08L315.24,158.64z"/>
</g>
</svg>
