<?xml version="1.0" encoding="utf-8"?>
<!-- Generator: Adobe Illustrator 23.0.2, SVG Export Plug-In . SVG Version: 6.00 Build 0)  -->
<svg version="1.1" id="Layer_1" xmlns="http://www.w3.org/2000/svg" xmlns:xlink="http://www.w3.org/1999/xlink" x="0px" y="0px"
	 viewBox="0 0 1000 632.5" style="enable-background:new 0 0 1000 632.5;" xml:space="preserve">
<g>
	<g>
		<path d="M870.58,378.95c0-4.25,3.23-8.9,3.64-17.39c1.01-18.81,9.5-26.89,20.01-26.89c5.86,0,9.5,3.24,9.5,8.09
			c0,7.08-6.27,13.35-10.92,19.41c-12.74,16.58-10.92,20.22-17.99,20.22C872,382.39,870.58,381.18,870.58,378.95z M906.98,378.95
			c0-4.25,3.23-8.9,3.64-17.39c1.01-18.81,9.5-26.89,20.02-26.89c5.86,0,9.5,3.24,9.5,8.09c0,7.08-6.27,13.35-10.91,19.41
			c-12.74,16.58-10.92,20.22-18,20.22C908.39,382.39,906.98,381.18,906.98,378.95z"/>
	</g>
</g>
</svg>
