<?xml version="1.0" encoding="utf-8"?>
<!-- Generator: Adobe Illustrator 23.0.2, SVG Export Plug-In . SVG Version: 6.00 Build 0)  -->
<svg version="1.1" id="Layer_1" xmlns="http://www.w3.org/2000/svg" xmlns:xlink="http://www.w3.org/1999/xlink" x="0px" y="0px"
	 viewBox="0 0 1000 632.5" style="enable-background:new 0 0 1000 632.5;" xml:space="preserve">
<g>
	<path d="M450.65,209.06c-7.37,16.68-40.08,37.48-54.81,37.48c-13.86,0-20.15-4.55-22.53-18.63c-1.95-11.05-3.9-32.71-5.63-54.59
		c-20.36,19.06-35.31,44.84-40.51,72.36h-35.96c8.45-40.51,36.61-70.41,74.95-90.34c-2.17-29.9-3.47-40.08-4.98-47.01
		c-1.08-5.85-6.5-8.88-15.16-8.88c-4.33,0-6.5-2.17-6.5-5.85c0-6.06,3.68-9.53,19.93-9.53c30.98,0,37.04,8.45,38.77,50.48
		c13.86-11.48,19.71-25.35,27.95-49.83h35.96c-11.48,30.76-35.74,52.64-62.17,67.37c1.95,29.25,5.2,56.33,6.93,66.08
		c0.43,4.33,2.38,4.98,4.98,4.98c9.32,0,28.16-14.08,32.28-22.96l6.72,8.45L450.65,209.06z"/>
</g>
</svg>
