<?xml version="1.0" encoding="utf-8"?>
<!-- Generator: Adobe Illustrator 23.0.2, SVG Export Plug-In . SVG Version: 6.00 Build 0)  -->
<svg version="1.1" id="Layer_1" xmlns="http://www.w3.org/2000/svg" xmlns:xlink="http://www.w3.org/1999/xlink" x="0px" y="0px"
	 viewBox="0 0 1000 632.5" style="enable-background:new 0 0 1000 632.5;" xml:space="preserve">
<g>
	<path d="M682.26,86.18c-5.86,2.83-13.34,3.84-21.43,3.84c-11.53,0-24.87-1.62-35.38-3.84c-5.66,3.03-11.12,4.25-15.57,4.25
		c-8.69,0-11.73-3.64-11.73-8.9c0-6.27,3.44-12.33,10.71-12.33c3.84,0,8.49,1.21,11.32,2.22c2.63-3.64,5.06-7.08,10.51-23.66h-12.13
		l7.48-11.12h9.3c9.91-25.88,26.89-32.35,53.17-32.35c14.56,0,21.43,0.4,27.29,1.21l-15.77,16.18c-3.23-1.41-10.51-2.43-17.59-2.43
		c-7.28,0-14.96,6.67-19.21,17.39h24.66l-10.92,11.12H657.8c-3.84,16.98-9.91,22.44-18.6,27.29c2.22,1.01,5.86,1.42,10.31,1.42
		c12.94,0,32.95-3.84,41.85-8.69L682.26,86.18z"/>
</g>
</svg>
