<?xml version="1.0" encoding="utf-8"?>
<!-- Generator: Adobe Illustrator 23.0.2, SVG Export Plug-In . SVG Version: 6.00 Build 0)  -->
<svg version="1.1" id="Layer_1" xmlns="http://www.w3.org/2000/svg" xmlns:xlink="http://www.w3.org/1999/xlink" x="0px" y="0px"
	 viewBox="0 0 1000 632.5" style="enable-background:new 0 0 1000 632.5;" xml:space="preserve">
<g>
	<path d="M210.9,393.61c-1.76-0.25-4.27-0.25-6.27-0.25c-16.06,0-24.84,2.76-24.84,10.54c0,3.76,3.26,5.27,6.78,5.77
		c4.77,0.75,9.03,2.26,9.03,7.78c0,6.78-7.28,8.28-14.05,9.03c-7.03,0.75-12.3,2.51-12.3,8.03c0,3.51,3.51,5.02,11.04,5.02
		c4.01,0,5.52-0.75,10.04-0.75c4.77,0,7.03,3.51,7.03,6.53c0,7.02-6.27,7.28-21.33,7.28c-25.59,0-30.86-5.77-30.86-14.81
		c0-8.03,6.53-15.31,18.32-18.57c-4.27-2.76-7.28-7.53-7.28-12.8c0-21.58,21.58-26.35,47.92-26.35c6.78,0,17.31,0,22.83,1.01
		L210.9,393.61z"/>
</g>
</svg>
