<?xml version="1.0" encoding="utf-8"?>
<!-- Generator: Adobe Illustrator 23.0.2, SVG Export Plug-In . SVG Version: 6.00 Build 0)  -->
<svg version="1.1" id="Layer_1" xmlns="http://www.w3.org/2000/svg" xmlns:xlink="http://www.w3.org/1999/xlink" x="0px" y="0px"
	 viewBox="0 0 1000 632.5" style="enable-background:new 0 0 1000 632.5;" xml:space="preserve">
<g>
	<path d="M181.47,544.28l-17.59,38.01c-12.13,26.08-24.46,34.78-44.88,34.78c-17.39,0-23.65-6.47-23.65-14.36
		c0-5.05,1.21-10.51,6.07-22.04c9.91-22.65,24.46-40.44,50.74-47.72l17.19-42.46c1.01-2.63,1.62-4.65,1.62-6.27
		c0-3.64-2.43-5.06-7.48-5.06h-8.29c-3.64,0-5.26-2.02-5.26-6.47c0-4.45,2.02-6.67,6.06-6.67h106.55
		c-14.96,15.97-15.97,18.2-19.41,26.89h-14.56c2.02-5.46,4.45-10.51,7.89-13.75h-31.74c0,0.61,0.2,1.42,0.2,2.43
		c0,3.84-1.21,10.92-6.47,23.86l-11.73,27.5h33.16l-5.05,11.32H181.47z M118.4,583.91c-3.84,8.49-4.85,12.33-4.85,13.95
		s1.01,2.22,2.43,2.22c2.22,0,4.85-1.42,6.47-3.84c5.46-7.89,13.95-24.46,22.44-45.49C134.97,554.19,126.68,565.31,118.4,583.91z"/>
</g>
</svg>
