<?xml version="1.0" encoding="utf-8"?>
<!-- Generator: Adobe Illustrator 23.0.2, SVG Export Plug-In . SVG Version: 6.00 Build 0)  -->
<svg version="1.1" id="Layer_1" xmlns="http://www.w3.org/2000/svg" xmlns:xlink="http://www.w3.org/1999/xlink" x="0px" y="0px"
	 viewBox="0 0 1000 632.5" style="enable-background:new 0 0 1000 632.5;" xml:space="preserve">
<g>
	<g>
		<path d="M660.59,613.47l73.59-164.79c8.09-18.2,23.86-24.06,51.35-24.06c29.11,0,41.45,6.47,41.45,17.39
			c0,21.64-24.26,47.31-48.52,52.57c11.32,3.24,16.78,10.11,16.78,20.83c0,3.84-0.81,8.09-8.29,24.46
			c-12.94,29.12-40.64,39.23-65.71,43.67L726.5,570c13.34-7.89,22.44-16.98,29.32-30.93c5.86-12.33,6.07-14.56,6.07-21.43
			c0-10.31-4.05-14.96-15.57-17.79l-50.55,113.63H660.59z M750.15,491.35c20.02-7.48,29.92-16.38,35.18-23.25
			c4.65-5.86,8.69-13.95,8.69-21.03c0-5.26-3.23-8.49-9.3-8.49c-7.88,0-12.94,4.65-16.58,12.94L750.15,491.35z"/>
	</g>
</g>
</svg>
