<?xml version="1.0" encoding="utf-8"?>
<!-- Generator: Adobe Illustrator 23.0.2, SVG Export Plug-In . SVG Version: 6.00 Build 0)  -->
<svg version="1.1" id="Layer_1" xmlns="http://www.w3.org/2000/svg" xmlns:xlink="http://www.w3.org/1999/xlink" x="0px" y="0px"
	 viewBox="0 0 1000 632.5" style="enable-background:new 0 0 1000 632.5;" xml:space="preserve">
<g>
	<g>
		<path d="M647.24,325.22l-54.99,125.97c-1.01,2.63-1.62,4.65-1.62,6.27c0,3.64,2.43,5.05,7.48,5.05h20.42
			c3.64,0,5.46,2.02,5.46,6.47c0,4.45-2.02,6.67-6.27,6.67H503.09c14.96-15.97,16.17-18.2,19.41-26.89h14.56
			c-2.02,5.46-4.45,10.51-7.68,13.75h27.5c0-0.61-0.2-1.42-0.2-2.43c0.2-3.84,1.01-10.92,6.67-23.86l47.51-111H647.24z"/>
	</g>
</g>
</svg>
