<?xml version="1.0" encoding="utf-8"?>
<!-- Generator: Adobe Illustrator 23.0.2, SVG Export Plug-In . SVG Version: 6.00 Build 0)  -->
<svg version="1.1" id="Layer_1" xmlns="http://www.w3.org/2000/svg" xmlns:xlink="http://www.w3.org/1999/xlink" x="0px" y="0px"
	 viewBox="0 0 1000 632.5" style="enable-background:new 0 0 1000 632.5;" xml:space="preserve">
<g>
	<g>
		<path d="M489.8,613.17l57.01-128.59c0.61-1.42,1.01-2.63,1.01-3.84c0-2.83-2.83-4.25-8.29-4.25h-2.02c-4.04,0-6.27-2.02-6.27-5.46
			c0-5.66,3.44-8.9,18.6-8.9c16.38,0,27.9,2.02,31.95,8.29c6.87-5.26,16.17-8.29,28.71-8.29c20.62,0,29.31,6.27,29.31,17.39
			c0,4.25-1.41,9.71-4.04,15.37l-22.64,50.14c-10.71,23.66-30.12,37.2-63.08,37.2c-3.64,0-7.28-0.2-11.12-0.61l-14.15,31.54H489.8z
			 M600.99,497.92c3.84-8.9,4.65-12.13,4.65-14.56c0-4.25-2.63-7.28-8.9-7.28c-7.68,0-12.74,3.64-15.77,10.52l-35.99,81.08
			c2.02,0.2,4.04,0.4,5.66,0.4c13.34,0,21.63-5.86,29.11-22.85L600.99,497.92z"/>
	</g>
</g>
</svg>
