<?xml version="1.0" encoding="utf-8"?>
<!-- Generator: Adobe Illustrator 23.0.2, SVG Export Plug-In . SVG Version: 6.00 Build 0)  -->
<svg version="1.1" id="Layer_1" xmlns="http://www.w3.org/2000/svg" xmlns:xlink="http://www.w3.org/1999/xlink" x="0px" y="0px"
	 viewBox="0 0 1000 632.5" style="enable-background:new 0 0 1000 632.5;" xml:space="preserve">
<g>
	<path d="M596.73,193.46c-8.12-0.14-17.73-4.2-26.97-10.39c-13.82-9.18-24.98-21.27-31.86-36.97c-5.04-11.5-14.3-33.13,2.5-40.49
		c5.11-2.24,11.96-3.5,33.74-3.46l69.69,0.6c28.2,0.27,43.5,11.86,54.77,37.6c8.08,18.44,8.76,27.94-0.19,31.86
		c-1.65,0.72-3.73,1.42-5.98,1.75l-24.84-25.9c4.33,0.93,12.2,0.53,14.39-0.43c1.83-0.8,1.94-3.03,0.18-7.04
		c-2-4.57-4.56-6.93-12.41-6.97l-96.91-0.64c-14.82-0.04-19.92,0.24-21.2,0.8c-2.01,0.88-2.14,3.55-0.22,7.93
		c9.6,21.91,32.9,42.83,49.95,42.98L596.73,193.46z"/>
</g>
</svg>
