<?xml version="1.0" encoding="utf-8"?>
<!-- Generator: Adobe Illustrator 23.0.2, SVG Export Plug-In . SVG Version: 6.00 Build 0)  -->
<svg version="1.1" id="Layer_1" xmlns="http://www.w3.org/2000/svg" xmlns:xlink="http://www.w3.org/1999/xlink" x="0px" y="0px"
	 viewBox="0 0 1000 632.5" style="enable-background:new 0 0 1000 632.5;" xml:space="preserve">
<g>
	<g>
		<path d="M450.33,611.44c-7.74,3.74-17.62,5.07-28.3,5.07c-15.22,0-32.84-2.13-46.72-5.07c-7.48,4.01-14.69,5.61-20.56,5.61
			c-11.48,0-15.49-4.81-15.49-11.75c0-8.28,4.54-16.29,14.15-16.29c5.07,0,11.21,1.6,14.95,2.94c3.47-4.81,6.67-9.34,13.88-31.24
			h-16.02l9.88-14.69h12.28c13.08-34.18,35.51-42.72,70.22-42.72c19.22,0,28.3,0.53,36.04,1.6l-20.82,21.36
			c-4.27-1.87-13.88-3.2-23.23-3.2c-9.61,0-19.76,8.81-25.36,22.96h32.57l-14.42,14.69h-25.36c-5.07,22.43-13.08,29.64-24.56,36.04
			c2.94,1.33,7.74,1.87,13.62,1.87c17.09,0,43.52-5.07,55.27-11.48L450.33,611.44z"/>
	</g>
</g>
</svg>
