<?xml version="1.0" encoding="utf-8"?>
<!-- Generator: Adobe Illustrator 23.0.2, SVG Export Plug-In . SVG Version: 6.00 Build 0)  -->
<svg version="1.1" id="Layer_1" xmlns="http://www.w3.org/2000/svg" xmlns:xlink="http://www.w3.org/1999/xlink" x="0px" y="0px"
	 viewBox="0 0 1000 632.5" style="enable-background:new 0 0 1000 632.5;" xml:space="preserve">
<g>
	<g>
		<path d="M478.81,478.53c-13.35,9.88-30.97,17.36-43.52,17.36c-9.88,0-16.55-5.87-16.55-13.08c0-16.56,15.49-28.3,15.49-43.52
			c0-6.41-6.14-9.08-18.16-10.41l4.01-8.54c13.08-2.94,24.3-9.08,32.04-17.89h-47.79l7.74-14.42h48.33c1.07-3.47,1.6-7.48,1.6-11.75
			c0-5.08-1.87-8.01-5.61-8.81H413.4l7.21-14.15h96.91l-7.21,14.15H496.7c0.54,1.07,0.54,2.4,0.54,3.74
			c0,5.61-1.87,11.48-4.27,16.82h15.48l-7.74,14.42h-17.62c-9.34,10.41-22.16,19.49-34.17,21.36c11.48,1.6,19.49,4.81,19.49,14.69
			c0,9.34-12.82,24.56-12.82,32.04c0,1.87,1.87,2.94,4.01,2.94c4,0,9.34-2.4,14.42-5.87L478.81,478.53z"/>
	</g>
</g>
</svg>
