<?xml version="1.0" encoding="utf-8"?>
<!-- Generator: Adobe Illustrator 23.0.2, SVG Export Plug-In . SVG Version: 6.00 Build 0)  -->
<svg version="1.1" id="Layer_1" xmlns="http://www.w3.org/2000/svg" xmlns:xlink="http://www.w3.org/1999/xlink" x="0px" y="0px"
	 viewBox="0 0 1000 632.5" style="enable-background:new 0 0 1000 632.5;" xml:space="preserve">
<g>
	<path d="M850.88,55.4c-7.08,16.18-39.83,35.38-61.06,35.38c-9.3,0-14.76-5.06-14.76-12.94c0-9.5,15.57-37.41,22.24-53.38
		c0.81-2.43,1.01-3.64,1.01-4.65c0-1.62-0.81-2.43-2.83-2.43c-3.44,0-6.47,1.82-7.68,5.05l-29.92,67.73h-33.76L764.14,0l21.23,11.12
		c6.67-6.47,17.39-7.07,26.48-7.07c10.31,0,15.97,5.86,15.97,15.16c0,10.31-9.91,28.71-15.57,42.06c-0.81,1.62-1.42,3.64-1.42,4.65
		c0,2.22,1.21,3.03,3.64,3.03c8.69,0,26.48-13.14,30.12-21.43L850.88,55.4z"/>
</g>
</svg>
