<?xml version="1.0" encoding="utf-8"?>
<!-- Generator: Adobe Illustrator 23.0.2, SVG Export Plug-In . SVG Version: 6.00 Build 0)  -->
<svg version="1.1" id="Layer_1" xmlns="http://www.w3.org/2000/svg" xmlns:xlink="http://www.w3.org/1999/xlink" x="0px" y="0px"
	 viewBox="0 0 1000 632.5" style="enable-background:new 0 0 1000 632.5;" xml:space="preserve">
<g>
	<path d="M821.53,214.39c-6.87,15.57-37.4,34.98-51.15,34.98c-12.94,0-18.8-4.25-21.03-17.39c-1.82-10.31-3.64-30.53-5.26-50.95
		c-19.01,17.79-32.96,41.85-37.81,67.53h-33.56c7.89-37.81,34.17-65.71,69.95-84.32c-2.02-27.9-3.23-37.4-4.65-43.87
		c-1.01-5.46-6.06-8.29-14.15-8.29c-4.04,0-6.07-2.02-6.07-5.46c0-5.66,3.44-8.9,18.6-8.9c28.91,0,34.57,7.89,36.19,47.11
		c12.94-10.72,18.4-23.66,26.08-46.5h33.56c-10.72,28.71-33.36,49.13-58.03,62.88c1.82,27.29,4.85,52.57,6.47,61.67
		c0.4,4.04,2.22,4.65,4.65,4.65c8.69,0,26.28-13.14,30.12-21.43l6.27,7.89L821.53,214.39z"/>
</g>
</svg>
