<?xml version="1.0" encoding="utf-8"?>
<!-- Generator: Adobe Illustrator 23.0.2, SVG Export Plug-In . SVG Version: 6.00 Build 0)  -->
<svg version="1.1" id="Layer_1" xmlns="http://www.w3.org/2000/svg" xmlns:xlink="http://www.w3.org/1999/xlink" x="0px" y="0px"
	 viewBox="0 0 1000 632.5" style="enable-background:new 0 0 1000 632.5;" xml:space="preserve">
<g>
	<path d="M100.26,446.39c0.6-1.42,1.01-2.63,1.01-3.84c0-2.83-2.63-4.25-8.09-4.25H76.2c-4.45,0-6.67-2.02-6.67-5.86
		c0-2.83,1.21-5.46,5.26-6.67c4.25-1.21,9.91-1.82,26.69-1.82c22.64,0,35.58,3.03,35.58,14.15c0,3.03-0.81,6.47-2.63,10.31
		L79.24,572.16c-14.56,32.15-27.5,40.64-47.92,40.64c-17.18,0-24.66-6.27-24.66-14.36c0-15.37,25.27-70.77,62.47-80.88
		L100.26,446.39z M30.71,579.64c-4.04,8.49-4.85,12.33-4.85,13.95c0,1.62,1.01,2.43,2.63,2.43c2.22,0,4.85-1.62,6.47-4.04
		c5.46-7.89,18.4-35.59,26.69-56.82C51.74,538.59,39,561.04,30.71,579.64z"/>
</g>
</svg>
