<?xml version="1.0" encoding="utf-8"?>
<!-- Generator: Adobe Illustrator 23.0.2, SVG Export Plug-In . SVG Version: 6.00 Build 0)  -->
<svg version="1.1" id="Layer_1" xmlns="http://www.w3.org/2000/svg" xmlns:xlink="http://www.w3.org/1999/xlink" x="0px" y="0px"
	 viewBox="0 0 1000 632.5" style="enable-background:new 0 0 1000 632.5;" xml:space="preserve">
<g>
	<g>
		<path d="M838.04,513.31c3.52-7.67,11.4-15.13,21.14-21.35c14.51-9.33,30.68-14.92,48.5-14.92c13.06,0,37.52,0.21,37.52,19.28
			c0,5.8-1.66,12.85-10.78,33.58l-29.64,66.13c-12.02,26.74-29.44,36.48-58.66,36.48c-20.94,0-30.26-3.32-30.26-13.47
			c0-1.87,0.21-4.15,0.83-6.43l35.03-12.85c-2.69,3.73-5.6,11.4-5.6,13.89c0,2.07,2.07,3.11,6.63,3.11c5.18,0,8.5-1.45,11.82-8.91
			l41.04-92.04c6.22-14.09,8.08-19.07,8.08-20.52c0-2.28-2.49-3.52-7.46-3.52c-24.87,0-54.51,13.47-61.77,29.64L838.04,513.31z"/>
	</g>
</g>
</svg>
