<?xml version="1.0" encoding="utf-8"?>
<!-- Generator: Adobe Illustrator 23.0.2, SVG Export Plug-In . SVG Version: 6.00 Build 0)  -->
<svg version="1.1" id="Layer_1" xmlns="http://www.w3.org/2000/svg" xmlns:xlink="http://www.w3.org/1999/xlink" x="0px" y="0px"
	 viewBox="0 0 1000 632.5" style="enable-background:new 0 0 1000 632.5;" xml:space="preserve">
<g>
	<path d="M305.82,577.76c-6.62,14.99-36.02,33.69-49.26,33.69c-12.46,0-18.11-4.09-20.25-16.75c-1.75-9.93-3.5-29.4-5.06-49.07
		c-18.3,17.13-31.74,40.31-36.41,65.04h-32.32c7.59-36.42,32.91-63.29,67.37-81.2c-1.95-26.87-3.11-36.03-4.48-42.26
		c-0.97-5.26-5.84-7.98-13.63-7.98c-3.9,0-5.84-1.95-5.84-5.26c0-5.45,3.31-8.57,17.91-8.57c27.85,0,33.3,7.59,34.86,45.37
		c12.46-10.32,17.72-22.78,25.12-44.79h32.32c-10.32,27.65-32.13,47.32-55.88,60.56c1.75,26.29,4.67,50.63,6.23,59.39
		c0.39,3.9,2.14,4.48,4.48,4.48c8.37,0,25.31-12.66,29.01-20.64l6.04,7.6L305.82,577.76z"/>
</g>
</svg>
