<?xml version="1.0" encoding="utf-8"?>
<!-- Generator: Adobe Illustrator 23.0.2, SVG Export Plug-In . SVG Version: 6.00 Build 0)  -->
<svg version="1.1" id="Layer_1" xmlns="http://www.w3.org/2000/svg" xmlns:xlink="http://www.w3.org/1999/xlink" x="0px" y="0px"
	 viewBox="0 0 1000 632.5" style="enable-background:new 0 0 1000 632.5;" xml:space="preserve">
<g>
	<path d="M1000,516.81c-2.76,5.71-8.28,11.78-15.82,16.93c-13.98,9.94-26.86,15.27-45.08,15.27c-19.5,0-30.36-1.84-30.36-15.46
		c0-5.15,1.84-11.78,5.7-20.61l6.81-15.27c8.83-20.06,19.87-27.6,44.71-27.6c19.32,0,23.74,4.42,23.74,11.78
		c0,6.07-1.47,14.54-6.99,21.9c-7.73,10.31-29.07,12.7-42.69,13.43c-2.95,6.44-4.6,10.86-4.6,13.8c0,3.5,2.39,4.97,6.81,4.97
		c20.06,0,43.61-11.78,52.07-26.31L1000,516.81z M943.88,507.42c11.04-0.92,19.32-10.3,19.32-22.08c0-1.47-1.29-2.39-3.5-2.39
		c-2.94,0-5.15,1.29-7.73,7.18L943.88,507.42z"/>
</g>
</svg>
