<?xml version="1.0" encoding="utf-8"?>
<!-- Generator: Adobe Illustrator 23.0.2, SVG Export Plug-In . SVG Version: 6.00 Build 0)  -->
<svg version="1.1" id="Layer_1" xmlns="http://www.w3.org/2000/svg" xmlns:xlink="http://www.w3.org/1999/xlink" x="0px" y="0px"
	 viewBox="0 0 1000 632.5" style="enable-background:new 0 0 1000 632.5;" xml:space="preserve">
<g>
	<path d="M417.37,6.06c8.82,0.16,19.26,4.57,29.3,11.29c15.01,9.98,27.15,23.11,34.63,40.17c5.48,12.5,15.53,36.01-2.72,44
		c-5.56,2.44-13,3.8-36.66,3.76l-75.73-0.65c-30.64-0.3-47.26-12.88-59.52-40.86c-8.78-20.04-9.52-30.36,0.21-34.62
		c1.79-0.78,4.06-1.54,6.5-1.9l26.99,28.15c-4.7-1.02-13.26-0.58-15.64,0.47c-1.98,0.87-2.11,3.29-0.19,7.65
		c2.17,4.96,4.95,7.53,13.49,7.57l105.31,0.7c16.1,0.04,21.65-0.25,23.03-0.86c2.18-0.96,2.33-3.86,0.24-8.62
		c-10.43-23.81-35.75-46.54-54.27-46.71L417.37,6.06z"/>
</g>
</svg>
